<svg width="2194" height="1217" viewBox="0 0 2194 1217" fill="none" xmlns="http://www.w3.org/2000/svg">
<path d="M2012.73 768.946C2012.73 344.269 1604.56 0 1101.05 0C597.547 0 189.375 344.269 189.375 768.946C189.375 933.101 250.375 1085.23 354.28 1210.12H1847.83C1951.73 1085.23 2012.73 933.101 2012.73 768.946Z" fill="#FCDEDD"/>
<path d="M1484.33 1211.9C1404.22 1211.9 1384.05 1143.96 1441.05 1148.12C1369.59 1073.19 1367.53 977.465 1478.06 1017.7C1433.07 907.789 1486.32 826.066 1573.17 912.915C1573.17 799.394 1724.66 781.74 1724.66 926.014C1802.68 872.481 1894.94 935.126 1787.87 1020.55C1905.57 1020.55 1893.8 1130.46 1811.79 1162.36C1885.45 1162.36 1855.07 1211.9 1804.39 1211.9C1749.15 1211.9 1484.33 1211.9 1484.33 1211.9Z" fill="#536C87"/>
<path d="M1837.46 1211.9C1785.44 1211.9 1772.35 1167.79 1809.36 1170.49C1762.96 1121.84 1761.62 1059.68 1833.39 1085.81C1804.18 1014.44 1838.75 961.38 1895.14 1017.77C1895.14 944.061 1993.5 932.598 1993.5 1026.28C2044.16 991.516 2104.07 1032.19 2034.55 1087.66C2110.97 1087.66 2103.33 1159.03 2050.08 1179.73C2097.9 1179.73 2078.18 1211.9 2045.27 1211.9C2009.4 1211.9 1837.46 1211.9 1837.46 1211.9Z" fill="#778D9F"/>
<path d="M709.448 1211.9C789.558 1211.9 809.722 1143.96 752.73 1148.12C824.19 1073.19 826.245 977.465 715.712 1017.7C760.703 907.789 707.454 826.066 620.605 912.915C620.605 799.394 469.118 781.74 469.118 926.014C391.096 872.481 298.837 935.126 405.903 1020.55C288.206 1020.55 299.976 1130.46 381.984 1162.36C308.328 1162.36 338.702 1211.9 389.388 1211.9C444.629 1211.9 709.448 1211.9 709.448 1211.9Z" fill="#536C87"/>
<path d="M356.315 1211.9C408.33 1211.9 421.423 1167.79 384.418 1170.49C430.817 1121.84 432.151 1059.68 360.383 1085.81C389.595 1014.44 355.021 961.38 298.63 1017.77C298.63 944.061 200.27 932.598 200.27 1026.28C149.611 991.516 89.7067 1032.19 159.225 1087.66C82.8047 1087.66 90.4467 1159.03 143.695 1179.73C95.8707 1179.73 115.592 1211.9 148.502 1211.9C184.369 1211.9 356.315 1211.9 356.315 1211.9Z" fill="#778D9F"/>
<path d="M1861.65 1180.2H1690.51C1685.8 1180.2 1682.5 1174.59 1684.08 1169.25L1686.43 1161.28L1751.64 940.581C1752.61 937.306 1755.19 935.117 1758.08 935.117H1794.09C1796.98 935.117 1799.56 937.306 1800.52 940.581L1809.95 972.494L1816.38 994.261L1822.12 1013.66L1828.55 1035.42L1868.09 1169.24C1869.67 1174.59 1866.37 1180.2 1861.65 1180.2Z" fill="#EF5A53"/>
<path d="M1874.77 1211.9H1677.4C1667.57 1211.9 1659.59 1203.93 1659.59 1194.09V1179.09C1659.59 1169.25 1667.57 1161.28 1677.4 1161.28H1874.77C1884.6 1161.28 1892.58 1169.25 1892.58 1179.09V1194.09C1892.58 1203.93 1884.61 1211.9 1874.77 1211.9Z" fill="#EF5A53"/>
<path d="M1907.93 1161.28H1650.54V1211.9H1907.93V1161.28Z" fill="#EF5A53"/>
<path d="M1816.38 994.26H1735.78L1742.21 972.494H1809.95L1816.38 994.26Z" fill="#FDEEED"/>
<path d="M1828.54 1035.42H1723.62L1730.05 1013.66H1822.11L1828.54 1035.42Z" fill="#FDEEED"/>
<path d="M1767.04 935.116L1765.76 943.635L1733.19 1161.28H1686.44L1751.65 940.58C1752.61 937.305 1755.19 935.116 1758.08 935.116H1767.04Z" fill="#FCDEDD"/>
<path d="M1686.44 1161.28H1823.84" stroke="#533142" stroke-width="1.7" stroke-miterlimit="10" stroke-linecap="round" stroke-linejoin="round"/>
<path d="M1830.13 1161.28H1838.35" stroke="#533142" stroke-width="1.7" stroke-miterlimit="10" stroke-linecap="round" stroke-linejoin="round"/>
<path d="M1759.95 943.634H1791.69" stroke="#533142" stroke-width="1.7" stroke-miterlimit="10" stroke-linecap="round" stroke-linejoin="round"/>
<path d="M496.97 1180.2H325.834C321.119 1180.2 317.82 1174.59 319.399 1169.25L321.753 1161.28L386.964 940.581C387.93 937.306 390.509 935.117 393.4 935.117H429.407C432.298 935.117 434.877 937.306 435.843 940.581L445.273 972.494L451.705 994.261L457.438 1013.66L463.867 1035.42L503.408 1169.24C504.984 1174.59 501.685 1180.2 496.97 1180.2Z" fill="#EF5A53"/>
<path d="M510.089 1211.9H312.724C302.888 1211.9 294.914 1203.93 294.914 1194.09V1179.09C294.914 1169.25 302.888 1161.28 312.724 1161.28H510.089C519.925 1161.28 527.9 1169.25 527.9 1179.09V1194.09C527.9 1203.93 519.926 1211.9 510.089 1211.9Z" fill="#EF5A53"/>
<path d="M543.246 1161.28H285.859V1211.9H543.246V1161.28Z" fill="#EF5A53"/>
<path d="M451.704 994.26H371.102L377.534 972.494H445.272L451.704 994.26Z" fill="#FDEEED"/>
<path d="M463.864 1035.42H358.938L365.367 1013.66H457.435L463.864 1035.42Z" fill="#FDEEED"/>
<path d="M402.357 935.116L401.083 943.635L368.51 1161.28H321.758L386.969 940.58C387.935 937.305 390.514 935.116 393.405 935.116H402.357Z" fill="#FCDEDD"/>
<path d="M321.758 1161.28H459.158" stroke="#533142" stroke-width="1.7" stroke-miterlimit="10" stroke-linecap="round" stroke-linejoin="round"/>
<path d="M465.453 1161.28H473.674" stroke="#533142" stroke-width="1.7" stroke-miterlimit="10" stroke-linecap="round" stroke-linejoin="round"/>
<path d="M395.266 943.634H427.013" stroke="#533142" stroke-width="1.7" stroke-miterlimit="10" stroke-linecap="round" stroke-linejoin="round"/>
<path d="M1318.82 1211.64H1287.52L1415.18 487.63H1446.48L1318.82 1211.64Z" fill="#533142"/>
<path d="M1547.18 1211.64H1578.48L1450.82 487.63H1419.52L1547.18 1211.64Z" fill="#533142"/>
<path d="M732.996 1211.64H701.695L829.357 487.63H860.659L732.996 1211.64Z" fill="#533142"/>
<path d="M961.358 1211.64H992.659L864.997 487.63H833.695L961.358 1211.64Z" fill="#533142"/>
<mask id="mask0_489_223" style="mask-type:luminance" maskUnits="userSpaceOnUse" x="636" y="560" width="966" height="121">
<path d="M1580.8 680.31H636.219L657.267 560.939H1601.85L1580.8 680.31Z" fill="white"/>
</mask>
<g mask="url(#mask0_489_223)">
<path d="M1580.8 680.31H636.219L657.267 560.939H1601.85L1580.8 680.31Z" fill="#FDEEED"/>
</g>
<mask id="mask1_489_223" style="mask-type:luminance" maskUnits="userSpaceOnUse" x="636" y="560" width="966" height="121">
<path d="M1580.8 680.31H636.219L657.267 560.939H1601.85L1580.8 680.31Z" fill="white"/>
</mask>
<g mask="url(#mask1_489_223)">
<path d="M566.393 745.089L527.047 731.299L692.244 530.973L731.59 544.763L566.393 745.089Z" fill="#EF5A53"/>
</g>
<mask id="mask2_489_223" style="mask-type:luminance" maskUnits="userSpaceOnUse" x="636" y="560" width="966" height="121">
<path d="M1580.8 680.31H636.219L657.267 560.939H1601.85L1580.8 680.31Z" fill="white"/>
</mask>
<g mask="url(#mask2_489_223)">
<path d="M681.229 745.089L641.883 731.299L807.081 530.973L846.427 544.763L681.229 745.089Z" fill="#EF5A53"/>
</g>
<mask id="mask3_489_223" style="mask-type:luminance" maskUnits="userSpaceOnUse" x="636" y="560" width="966" height="121">
<path d="M1580.8 680.31H636.219L657.267 560.939H1601.85L1580.8 680.31Z" fill="white"/>
</mask>
<g mask="url(#mask3_489_223)">
<path d="M796.056 745.089L756.711 731.299L921.908 530.973L961.254 544.763L796.056 745.089Z" fill="#EF5A53"/>
</g>
<mask id="mask4_489_223" style="mask-type:luminance" maskUnits="userSpaceOnUse" x="636" y="560" width="966" height="121">
<path d="M1580.8 680.31H636.219L657.267 560.939H1601.85L1580.8 680.31Z" fill="white"/>
</mask>
<g mask="url(#mask4_489_223)">
<path d="M910.885 745.089L871.539 731.299L1036.74 530.973L1076.08 544.763L910.885 745.089Z" fill="#EF5A53"/>
</g>
<mask id="mask5_489_223" style="mask-type:luminance" maskUnits="userSpaceOnUse" x="636" y="560" width="966" height="121">
<path d="M1580.8 680.31H636.219L657.267 560.939H1601.85L1580.8 680.31Z" fill="white"/>
</mask>
<g mask="url(#mask5_489_223)">
<path d="M1025.71 745.089L986.367 731.299L1151.57 530.973L1190.91 544.763L1025.71 745.089Z" fill="#EF5A53"/>
</g>
<mask id="mask6_489_223" style="mask-type:luminance" maskUnits="userSpaceOnUse" x="636" y="560" width="966" height="121">
<path d="M1580.8 680.31H636.219L657.267 560.939H1601.85L1580.8 680.31Z" fill="white"/>
</mask>
<g mask="url(#mask6_489_223)">
<path d="M1140.54 745.089L1101.2 731.299L1266.39 530.973L1305.74 544.763L1140.54 745.089Z" fill="#EF5A53"/>
</g>
<mask id="mask7_489_223" style="mask-type:luminance" maskUnits="userSpaceOnUse" x="636" y="560" width="966" height="121">
<path d="M1580.8 680.31H636.219L657.267 560.939H1601.85L1580.8 680.31Z" fill="white"/>
</mask>
<g mask="url(#mask7_489_223)">
<path d="M1255.37 745.089L1216.02 731.299L1381.22 530.973L1420.57 544.763L1255.37 745.089Z" fill="#EF5A53"/>
</g>
<mask id="mask8_489_223" style="mask-type:luminance" maskUnits="userSpaceOnUse" x="636" y="560" width="966" height="121">
<path d="M1580.8 680.31H636.219L657.267 560.939H1601.85L1580.8 680.31Z" fill="white"/>
</mask>
<g mask="url(#mask8_489_223)">
<path d="M1370.21 745.089L1330.86 731.299L1496.06 530.973L1535.4 544.763L1370.21 745.089Z" fill="#EF5A53"/>
</g>
<mask id="mask9_489_223" style="mask-type:luminance" maskUnits="userSpaceOnUse" x="636" y="560" width="966" height="121">
<path d="M1580.8 680.31H636.219L657.267 560.939H1601.85L1580.8 680.31Z" fill="white"/>
</mask>
<g mask="url(#mask9_489_223)">
<path d="M1485.03 745.089L1445.69 731.299L1610.89 530.973L1650.23 544.763L1485.03 745.089Z" fill="#EF5A53"/>
</g>
<mask id="mask10_489_223" style="mask-type:luminance" maskUnits="userSpaceOnUse" x="591" y="812" width="967" height="120">
<path d="M1536.51 931.473H591.93L612.978 812.103H1557.56L1536.51 931.473Z" fill="white"/>
</mask>
<g mask="url(#mask10_489_223)">
<path d="M1536.51 931.473H591.93L612.978 812.103H1557.56L1536.51 931.473Z" fill="#FDEEED"/>
</g>
<mask id="mask11_489_223" style="mask-type:luminance" maskUnits="userSpaceOnUse" x="591" y="812" width="967" height="120">
<path d="M1536.51 931.473H591.93L612.978 812.103H1557.56L1536.51 931.473Z" fill="white"/>
</mask>
<g mask="url(#mask11_489_223)">
<path d="M522.104 996.252L482.758 982.463L647.956 782.136L687.301 795.926L522.104 996.252Z" fill="#EF5A53"/>
</g>
<mask id="mask12_489_223" style="mask-type:luminance" maskUnits="userSpaceOnUse" x="591" y="812" width="967" height="120">
<path d="M1536.51 931.473H591.93L612.978 812.103H1557.56L1536.51 931.473Z" fill="white"/>
</mask>
<g mask="url(#mask12_489_223)">
<path d="M636.94 996.252L597.594 982.463L762.792 782.136L802.138 795.926L636.94 996.252Z" fill="#EF5A53"/>
</g>
<mask id="mask13_489_223" style="mask-type:luminance" maskUnits="userSpaceOnUse" x="591" y="812" width="967" height="120">
<path d="M1536.51 931.473H591.93L612.978 812.103H1557.56L1536.51 931.473Z" fill="white"/>
</mask>
<g mask="url(#mask13_489_223)">
<path d="M751.768 996.252L712.422 982.463L877.619 782.136L916.965 795.926L751.768 996.252Z" fill="#EF5A53"/>
</g>
<mask id="mask14_489_223" style="mask-type:luminance" maskUnits="userSpaceOnUse" x="591" y="812" width="967" height="120">
<path d="M1536.51 931.473H591.93L612.978 812.103H1557.56L1536.51 931.473Z" fill="white"/>
</mask>
<g mask="url(#mask14_489_223)">
<path d="M866.596 996.252L827.25 982.463L992.447 782.136L1031.79 795.926L866.596 996.252Z" fill="#EF5A53"/>
</g>
<mask id="mask15_489_223" style="mask-type:luminance" maskUnits="userSpaceOnUse" x="591" y="812" width="967" height="120">
<path d="M1536.51 931.473H591.93L612.978 812.103H1557.56L1536.51 931.473Z" fill="white"/>
</mask>
<g mask="url(#mask15_489_223)">
<path d="M981.424 996.252L942.078 982.463L1107.28 782.136L1146.62 795.926L981.424 996.252Z" fill="#EF5A53"/>
</g>
<mask id="mask16_489_223" style="mask-type:luminance" maskUnits="userSpaceOnUse" x="591" y="812" width="967" height="120">
<path d="M1536.51 931.473H591.93L612.978 812.103H1557.56L1536.51 931.473Z" fill="white"/>
</mask>
<g mask="url(#mask16_489_223)">
<path d="M1096.25 996.252L1056.91 982.463L1222.1 782.136L1261.45 795.926L1096.25 996.252Z" fill="#EF5A53"/>
</g>
<mask id="mask17_489_223" style="mask-type:luminance" maskUnits="userSpaceOnUse" x="591" y="812" width="967" height="120">
<path d="M1536.51 931.473H591.93L612.978 812.103H1557.56L1536.51 931.473Z" fill="white"/>
</mask>
<g mask="url(#mask17_489_223)">
<path d="M1211.08 996.252L1171.73 982.463L1336.93 782.136L1376.28 795.926L1211.08 996.252Z" fill="#EF5A53"/>
</g>
<mask id="mask18_489_223" style="mask-type:luminance" maskUnits="userSpaceOnUse" x="591" y="812" width="967" height="120">
<path d="M1536.51 931.473H591.93L612.978 812.103H1557.56L1536.51 931.473Z" fill="white"/>
</mask>
<g mask="url(#mask18_489_223)">
<path d="M1325.92 996.252L1286.57 982.463L1451.77 782.136L1491.11 795.926L1325.92 996.252Z" fill="#EF5A53"/>
</g>
<mask id="mask19_489_223" style="mask-type:luminance" maskUnits="userSpaceOnUse" x="591" y="812" width="967" height="120">
<path d="M1536.51 931.473H591.93L612.978 812.103H1557.56L1536.51 931.473Z" fill="white"/>
</mask>
<g mask="url(#mask19_489_223)">
<path d="M1440.74 996.252L1401.4 982.463L1566.6 782.136L1605.94 795.926L1440.74 996.252Z" fill="#EF5A53"/>
</g>
<path d="M879.707 465.354C882.692 446.963 870.203 429.634 851.812 426.65C833.421 423.665 816.092 436.154 813.107 454.545C810.123 472.936 822.612 490.265 841.003 493.249C859.394 496.234 876.722 483.745 879.707 465.354Z" fill="#EF5A53"/>
<path d="M848.932 438.281C852.074 442.885 849.03 450.433 842.133 455.138C835.237 459.843 827.099 459.925 823.957 455.321C820.815 450.717 823.859 443.169 830.756 438.464C837.653 433.758 845.791 433.676 848.932 438.281Z" fill="#F48C87"/>
<path d="M882.707 479.521H810.047V495.74H882.707V479.521Z" fill="#533142"/>
<path d="M1466.84 468.529C1471.6 450.516 1460.86 432.053 1442.84 427.291C1424.83 422.529 1406.37 433.271 1401.61 451.283C1396.84 469.296 1407.59 487.759 1425.6 492.521C1443.61 497.283 1462.07 486.542 1466.84 468.529Z" fill="#EF5A53"/>
<path d="M1436.78 438.281C1439.93 442.885 1436.88 450.433 1429.98 455.138C1423.09 459.843 1414.95 459.925 1411.81 455.321C1408.67 450.717 1411.71 443.169 1418.61 438.464C1425.5 433.758 1433.64 433.676 1436.78 438.281Z" fill="#F48C87"/>
<path d="M1470.56 479.521H1397.9V495.74H1470.56V479.521Z" fill="#533142"/>
<path d="M5 1211.9H2188.78" stroke="#533142" stroke-width="10" stroke-miterlimit="10" stroke-linecap="round" stroke-linejoin="round"/>
<path d="M1917.72 730.258C1900.29 734.524 1896.84 737.983 1892.57 755.405C1888.3 737.983 1884.84 734.525 1867.42 730.258C1884.84 725.992 1888.3 722.533 1892.57 705.111C1896.84 722.533 1900.29 725.991 1917.72 730.258Z" fill="#FFBFBC"/>
<path d="M1632.73 1022.69C1623.91 1024.85 1622.16 1026.6 1620 1035.42C1617.84 1026.6 1616.09 1024.85 1607.27 1022.69C1616.09 1020.53 1617.84 1018.78 1620 1009.96C1622.16 1018.78 1623.91 1020.53 1632.73 1022.69Z" fill="#FEFEFE"/>
<path d="M1180.43 416.235C1153.14 422.917 1147.73 428.334 1141.04 455.622C1134.36 428.334 1128.94 422.917 1101.66 416.235C1128.94 409.553 1134.36 404.136 1141.04 376.848C1147.73 404.136 1153.14 409.553 1180.43 416.235Z" fill="#FFBFBC"/>
<path d="M334.297 228.021C307.009 234.703 301.592 240.12 294.91 267.408C288.228 240.12 282.811 234.703 255.523 228.021C282.811 221.339 288.228 215.922 294.91 188.634C301.592 215.922 307.009 221.339 334.297 228.021Z" fill="#FFBFBC"/>
<path d="M1582.71 386.099C1565.29 390.365 1561.83 393.824 1557.56 411.246C1553.3 393.824 1549.84 390.365 1532.41 386.099C1549.84 381.833 1553.3 378.374 1557.56 360.952C1561.83 378.374 1565.29 381.833 1582.71 386.099Z" fill="#FFBFBC"/>
<path d="M542.966 822.784C525.544 827.05 522.085 830.509 517.819 847.931C513.553 830.509 510.094 827.05 492.672 822.784C510.094 818.518 513.552 815.059 517.819 797.637C522.085 815.059 525.544 818.517 542.966 822.784Z" fill="#FFBFBC"/>
<path d="M402.349 493.685C384.927 497.951 381.469 501.41 377.202 518.832C372.936 501.41 369.477 497.951 352.055 493.685C369.477 489.419 372.936 485.96 377.202 468.538C381.468 485.96 384.927 489.419 402.349 493.685Z" fill="#FFBFBC"/>
<path d="M180.841 871.788C164.888 875.694 161.721 878.861 157.815 894.814C153.909 878.861 150.742 875.694 134.789 871.788C150.742 867.881 153.909 864.715 157.815 848.762C161.721 864.714 164.888 867.881 180.841 871.788Z" fill="#FFBFBC"/>
<path d="M1276.68 321.317C1267.86 323.477 1266.11 325.228 1263.95 334.047C1261.79 325.227 1260.04 323.477 1251.22 321.317C1260.04 319.157 1261.79 317.406 1263.95 308.587C1266.11 317.406 1267.86 319.157 1276.68 321.317Z" fill="#FFBFBC"/>
<path d="M255.53 727.353C246.71 729.513 244.96 731.263 242.8 740.083C240.64 731.263 238.889 729.513 230.07 727.353C238.89 725.193 240.64 723.442 242.8 714.623C244.959 723.443 246.71 725.194 255.53 727.353Z" fill="#FFBFBC"/>
<path d="M604.655 407.413C595.835 409.573 594.085 411.324 591.925 420.143C589.765 411.323 588.014 409.573 579.195 407.413C588.015 405.253 589.765 403.502 591.925 394.683C594.085 403.503 595.835 405.254 604.655 407.413Z" fill="#FFBFBC"/>
<path d="M2040.44 889.021C2013.15 895.703 2007.73 901.12 2001.05 928.408C1994.37 901.12 1988.95 895.703 1961.66 889.021C1988.95 882.339 1994.37 876.922 2001.05 849.634C2007.73 876.922 2013.15 882.339 2040.44 889.021Z" fill="#FFBFBC"/>
<path d="M1815.2 446.801C1787.92 453.483 1782.5 458.9 1775.82 486.188C1769.13 458.9 1763.72 453.483 1736.43 446.801C1763.72 440.119 1769.13 434.702 1775.82 407.414C1782.5 434.701 1787.92 440.118 1815.2 446.801Z" fill="#FFBFBC"/>
<path d="M1708.83 935.116C1691.4 939.382 1687.95 942.841 1683.68 960.263C1679.41 942.841 1675.95 939.383 1658.53 935.116C1675.95 930.85 1679.41 927.391 1683.68 909.969C1687.95 927.391 1691.4 930.85 1708.83 935.116Z" fill="#FEFEFE"/>
<path d="M992.508 105.949V220.715H1018.28V256.77H992.381V288H944.773V256.77H867.713V219.318C881.255 203.745 894.712 185.676 908.084 165.109C921.541 144.543 932.459 124.823 940.838 105.949H992.508ZM944.646 220.715V167.395C936.86 184.576 926.154 202.349 912.527 220.715H944.646ZM1171.13 195.451C1171.13 226.682 1165.16 250.464 1153.23 266.799C1141.38 283.049 1124.03 291.174 1101.18 291.174C1077.82 291.174 1060.34 283.684 1048.75 268.703C1037.24 253.723 1031.48 230.533 1031.48 199.133C1031.48 167.648 1037.7 143.739 1050.14 127.404C1062.67 111.07 1080.74 102.902 1104.35 102.902C1148.87 102.902 1171.13 133.752 1171.13 195.451ZM1117.81 195.451C1117.81 177.339 1116.54 163.967 1114 155.334C1111.46 146.701 1107.36 142.385 1101.69 142.385C1090.6 142.385 1085.06 160.92 1085.06 197.99C1085.06 216.187 1086.33 229.686 1088.87 238.488C1091.49 247.206 1095.59 251.564 1101.18 251.564C1112.27 251.564 1117.81 232.86 1117.81 195.451ZM1309.89 105.949V220.715H1335.66V256.77H1309.76V288H1262.16V256.77H1185.1V219.318C1198.64 203.745 1212.09 185.676 1225.47 165.109C1238.92 144.543 1249.84 124.823 1258.22 105.949H1309.89ZM1262.03 220.715V167.395C1254.24 184.576 1243.54 202.349 1229.91 220.715H1262.03Z" fill="#533142"/>
<path d="M230.068 614.689C206.426 620.478 201.733 625.172 195.944 648.813C190.155 625.171 185.461 620.478 161.82 614.689C185.461 608.9 190.155 604.206 195.944 580.565C201.733 604.206 206.427 608.899 230.068 614.689Z" fill="#FFBFBC"/>
</svg>
