<svg width="1191" height="842" viewBox="0 0 1191 842" fill="none" xmlns="http://www.w3.org/2000/svg">
<g clip-path="url(#clip0_489_2)">
<path d="M448.697 132.1C589.297 104 717.097 176.5 772.897 290.7C776.797 298.8 784.997 303.8 793.997 303.8C793.997 303.8 794.097 303.8 794.197 303.8C919.997 303.8 1022.3 404.7 1024.6 530C1027 660.5 919.497 767.5 789.097 764.6C742.897 763.6 700.097 749 664.497 724.7C636.897 705.9 602.897 699.4 570.197 706.2C550.597 710.3 530.197 712.5 509.397 712.5C328.997 712.5 186.697 549.7 221.397 363C242.997 247 333.097 155.3 448.797 132.1H448.697Z" fill="#FFD1CA"/>
<path d="M275.101 706.6C274.401 704.6 273.901 702.6 272.001 701.1C269.901 699.6 267.401 700 266.301 700.7C263.001 702.9 261.901 708.1 257.701 702.4C256.101 700.2 255.801 698.6 255.201 695.8C253.101 687 251.201 678.4 247.301 670.7C246.301 668.7 241.201 658.3 237.901 660.5C235.401 662.2 237.301 666.7 235.601 668.9C234.301 670.6 232.401 670.8 231.001 669.7C219.701 661.4 222.101 640.3 210.801 631.9C209.701 631.1 207.101 630 205.001 631.6C203.801 632.6 203.101 634.8 203.301 636.3C203.601 638.8 204.401 640.9 203.901 643.5C203.701 644.6 203.301 645.9 202.401 646.5C201.401 647.1 200.301 646.6 199.401 646.1C195.201 643.5 192.601 638.4 189.001 634.9C185.301 631.3 181.401 628.8 175.101 629.5C173.501 629.7 171.301 631.1 169.301 633.3C166.501 636.3 164.701 641.6 165.401 645.4C166.201 649.4 169.001 653.2 171.701 655.7C177.301 660.8 184.501 663.9 190.101 669C191.001 669.8 192.001 671 191.601 672.4C190.901 674.9 186.101 674.7 184.701 676.9C183.401 679 185.101 683.2 187.801 685.2C194.301 689.9 198.701 691.5 206.601 694.3C208.601 695 210.201 697.8 208.801 699.9C208.101 700.9 205.501 701.4 204.901 702.5C203.301 705.4 205.601 706.9 207.001 708C214.401 713.8 223.201 716.6 230.001 723.1C231.601 724.6 233.101 727.5 231.401 729.5C230.001 731.2 226.901 730.5 224.801 731.8C222.801 733 220.401 735.2 224.601 741.6C232.301 753.1 241.001 753.5 255.101 754.8C256.001 754.8 276.701 755.2 277.601 754.8C279.001 754.1 280.301 745 280.501 743.5C281.701 728.8 279.701 719.6 275.101 706.5V706.6Z" fill="#FFD1CA"/>
<g opacity="0.7">
<g opacity="0.5">
<path d="M245.502 707.8L243.602 707.6C244.502 696.9 243.602 686.2 240.702 676.5L240.102 674.4L241.902 673.8C245.302 684.2 246.602 696 245.602 707.7L245.502 707.8Z" fill="#FFD1CA"/>
</g>
<g opacity="0.5">
<path d="M269.4 749.5C264.6 739.7 259.1 730.2 253.1 721.4C251.7 719.3 250.2 717.1 248.3 714.5C225.3 682.5 202.5 659.8 178.5 645L179.5 643.4C203.7 658.3 226.7 681.2 249.9 713.4C251.8 716 253.3 718.2 254.7 720.3C260.7 729.2 266.3 738.7 271.1 748.6L269.4 749.4V749.5Z" fill="#FFD1CA"/>
</g>
<g opacity="0.5">
<path d="M195.302 684.1C194.702 684.1 194.202 684.1 193.602 684.1V682.2C201.202 682.6 212.202 680.2 219.302 677.9L219.902 679.7C213.202 681.9 202.902 684.1 195.302 684.1Z" fill="#FFD1CA"/>
</g>
<g opacity="0.5">
<path d="M200.8 689.4C200.5 689.4 200.2 689.4 200 689.4V687.5C204.6 687.7 208.8 686 213.7 684C216.6 682.8 219.5 681.7 222.8 680.7L223.3 682.5C220.1 683.4 217.2 684.5 214.4 685.7C209.8 687.6 205.4 689.3 200.8 689.3V689.4Z" fill="#FFD1CA"/>
</g>
<g opacity="0.5">
<path d="M228.303 710C223.503 710 218.903 709.2 214.703 707.1L215.603 705.4C223.603 709.5 233.503 708.3 243.103 706.3L243.503 708.2C238.503 709.2 233.303 710.1 228.403 710.1L228.303 710Z" fill="#FFD1CA"/>
</g>
<g opacity="0.5">
<path d="M229.498 716.2C226.998 716.2 224.498 715.7 221.898 714.3L222.798 712.6C228.498 715.5 233.398 714.1 239.598 712.2C241.898 711.5 244.298 710.8 246.898 710.2L247.298 712.1C244.698 712.6 242.398 713.3 240.098 714C236.398 715.1 232.998 716.2 229.498 716.2Z" fill="#FFD1CA"/>
</g>
<g opacity="0.5">
<path d="M257.297 739.5C250.897 739.5 244.197 738.4 237.297 736.3L237.897 734.5C247.097 737.4 256.097 738.3 264.397 737.1L264.697 739C262.297 739.3 259.797 739.5 257.397 739.5H257.297Z" fill="#FFD1CA"/>
</g>
<g opacity="0.5">
<path d="M266.197 739.9L264.397 739.3C265.597 735.5 265.897 731.2 265.397 726.4C264.897 722.1 263.797 718 262.797 714L264.597 713.5C265.697 717.6 266.797 721.8 267.297 726.2C267.797 731.2 267.497 735.8 266.197 739.9Z" fill="#FFD1CA"/>
</g>
<g opacity="0.5">
<path d="M268.3 743.9L266.5 743.2C268.8 737.7 270.3 732.8 270.8 728.8C271.6 723.2 270.6 714.4 269.6 710.7L271.4 710.2C272.6 714.6 273.3 723.6 272.6 729.1C272 733.3 270.5 738.3 268.1 744L268.3 743.9Z" fill="#FFD1CA"/>
</g>
<g opacity="0.5">
<path d="M217.998 676.5C217.998 671.1 217.698 666.9 216.498 661.4C214.698 652.8 213.398 646.9 213.398 646.9L215.298 646.5C215.298 646.5 216.498 652.4 218.398 661C219.598 666.6 219.898 670.9 219.898 676.4H217.998V676.5Z" fill="#FFD1CA"/>
</g>
<g opacity="0.5">
<path d="M215.697 674.9C215.697 671.1 214.697 667.5 213.697 664C213.197 662.3 212.797 660.6 212.397 658.9C210.597 650.4 208.297 641.7 208.297 641.6L210.097 641.1C210.097 641.1 212.497 649.9 214.297 658.5C214.697 660.2 215.097 661.9 215.597 663.5C216.597 667.1 217.597 670.9 217.697 674.9H215.797H215.697Z" fill="#FFD1CA"/>
</g>
</g>
<g opacity="0.7">
<path d="M306.597 718.2C307.097 716.3 307.897 714.6 307.197 712.5C306.497 710.3 304.397 709.2 303.197 709.2C299.597 709 296.097 712.3 295.997 705.9C295.997 703.5 296.597 702.1 297.697 699.8C300.797 692.2 303.997 685 305.197 677.3C305.497 675.3 307.297 665 303.697 664.9C300.997 664.9 299.997 669.1 297.597 669.9C295.697 670.5 294.297 669.6 293.797 668.1C289.897 656.1 302.797 641.9 298.997 629.8C298.597 628.6 297.297 626.5 294.897 626.5C293.497 626.5 291.797 627.8 291.197 629C290.097 631 289.497 633 287.897 634.6C287.197 635.3 286.197 636.1 285.197 636C284.097 636 283.597 635 283.197 634.1C281.497 629.9 282.297 624.9 281.497 620.4C280.697 615.8 279.097 611.9 274.197 609.1C272.897 608.4 270.597 608.3 267.897 608.8C264.297 609.5 260.097 612.4 258.697 615.7C257.197 619 257.197 623.3 257.897 626.6C259.297 633.3 262.997 639.4 264.297 646.1C264.497 647.2 264.597 648.6 263.597 649.4C261.697 650.9 258.297 648.1 256.197 649C254.097 649.8 253.097 653.9 254.097 656.7C256.397 663.5 258.797 667.1 263.097 673.3C264.197 674.8 263.897 677.8 261.797 678.6C260.797 679 258.597 677.9 257.597 678.4C254.897 679.7 255.797 682 256.197 683.5C258.497 691.6 263.497 698.4 265.097 706.7C265.497 708.7 265.097 711.6 262.797 712.1C260.897 712.6 258.997 710.5 256.797 710.3C254.697 710.1 251.797 710.4 251.497 717.4C250.997 729.9 257.197 734.8 266.897 743.1C267.497 743.6 282.497 754.8 283.397 755C284.797 755.3 290.597 749.3 291.497 748.2C300.097 738.1 303.597 730.3 307.097 718.3L306.597 718.2Z" fill="#FFD1CA"/>
<g opacity="0.7">
<g opacity="0.5">
<path d="M284.3 703.4L283 702.3C289.3 695 294.2 686.6 297.3 678L297.9 676.1L299.5 676.6C296.5 686.1 291.2 695.3 284.3 703.4Z" fill="#FFD1CA"/>
</g>
<g opacity="0.5">
<path d="M281.498 746.9L279.798 746.6C281.498 736.9 282.498 727 282.698 717.4C282.698 715.1 282.798 712.7 282.798 709.8C282.798 674.3 278.198 645.5 268.398 622L269.998 621.3C279.798 645 284.598 674 284.498 709.7C284.498 712.6 284.498 715 284.398 717.3C284.098 727 283.098 736.9 281.398 746.7L281.498 746.9Z" fill="#FFD1CA"/>
</g>
<g opacity="0.5">
<path d="M280.498 669.3C273.998 667.2 264.398 663 258.898 658.6L259.998 657.3C265.298 661.5 274.598 665.7 280.998 667.7L280.498 669.3Z" fill="#FFD1CA"/>
</g>
<g opacity="0.5">
<path d="M281.302 673.2C278.502 672.2 275.802 671.5 273.102 670.8C268.502 669.7 264.102 668.6 260.602 665.8L261.702 664.5C264.902 667 268.902 668 273.502 669.2C276.202 669.9 279.002 670.6 281.902 671.6L281.302 673.2Z" fill="#FFD1CA"/>
</g>
<g opacity="0.5">
<path d="M282.602 702.5C274.302 698.8 266.102 694.3 262.102 686.5L263.602 685.7C267.302 692.9 275.202 697.3 283.202 700.9L282.502 702.5H282.602Z" fill="#FFD1CA"/>
</g>
<g opacity="0.5">
<path d="M283.402 707.5C281.302 706.5 279.202 705.8 277.102 705.1C271.402 703.2 266.602 701.5 263.602 695.7L265.102 694.9C267.802 700.1 272.102 701.6 277.602 703.5C279.702 704.2 281.802 704.9 284.002 705.9L283.302 707.5H283.402Z" fill="#FFD1CA"/>
</g>
<g opacity="0.5">
<path d="M281.795 736.3C274.895 732.6 268.595 727 263.195 719.9L264.595 718.9C269.895 725.9 275.895 731.3 282.595 734.9L281.795 736.4V736.3Z" fill="#FFD1CA"/>
</g>
<g opacity="0.5">
<path d="M282.5 737.9L281.5 736.5C284.4 734.3 286.9 731.3 289.1 727.6C291 724.2 292.4 720.6 293.7 717.1L295.3 717.7C293.9 721.2 292.5 724.9 290.5 728.4C288.3 732.4 285.6 735.5 282.5 737.8V737.9Z" fill="#FFD1CA"/>
</g>
<g opacity="0.5">
<path d="M282.002 741.9L281.102 740.4C285.702 737.6 289.402 734.8 291.902 732.2C295.402 728.5 299.402 721.6 300.602 718.3L302.202 718.9C300.702 722.8 296.502 729.8 293.102 733.3C290.502 736.1 286.702 738.9 282.002 741.8V741.9Z" fill="#FFD1CA"/>
</g>
<g opacity="0.5">
<path d="M282.095 667L280.695 666C283.495 662 285.495 658.8 287.595 654.2C290.795 646.9 292.995 642 292.995 642L294.595 642.7C294.595 642.7 292.395 647.7 289.195 654.9C287.095 659.6 284.995 662.9 282.195 667H282.095Z" fill="#FFD1CA"/>
</g>
<g opacity="0.5">
<path d="M281.298 664.6L279.898 663.6C281.898 660.8 283.098 657.6 284.198 654.5C284.698 653 285.298 651.5 285.998 650.1C289.198 642.9 292.098 635.4 292.098 635.3L293.698 635.9C293.698 635.9 290.798 643.6 287.598 650.8C286.998 652.2 286.398 653.7 285.898 655.1C284.698 658.3 283.498 661.6 281.398 664.5L281.298 664.6Z" fill="#FFD1CA"/>
</g>
</g>
</g>
<path d="M938.323 273.458L202.375 536.965L222.028 591.853L957.975 328.346L938.323 273.458Z" fill="#EFEDF5"/>
<path d="M258.203 579L222.703 591.7L240.303 523.5L275.803 510.8L258.203 579Z" fill="#FF7863"/>
<path d="M352.805 545.1L317.305 557.8L334.905 489.6L370.405 476.9L352.805 545.1Z" fill="#FF7863"/>
<path d="M447.5 511.2L412 524L429.6 455.7L465.1 443L447.5 511.2Z" fill="#FF7863"/>
<path d="M542.102 477.4L506.602 490.1L524.202 421.8L559.702 409.1L542.102 477.4Z" fill="#FF7863"/>
<path d="M636.805 443.5L601.305 456.2L618.905 388L654.405 375.3L636.805 443.5Z" fill="#FF7863"/>
<path d="M920.803 341.9L885.203 354.6L902.803 286.3L938.403 273.6L920.803 341.9Z" fill="#FF7863"/>
<path d="M826.102 375.7L790.602 388.4L808.202 320.2L843.702 307.5L826.102 375.7Z" fill="#FF7863"/>
<path d="M731.406 409.6L695.906 422.3L713.506 354.1L749.006 341.4L731.406 409.6Z" fill="#FF7863"/>
<g opacity="0.5">
<path d="M936.097 483.2H876.797V444.3C876.797 432 886.797 421.9 899.197 421.9H913.797C926.097 421.9 936.197 431.9 936.197 444.3V483.2H936.097ZM886.797 473.2H926.097V444.3C926.097 437.5 920.597 431.9 913.697 431.9H899.097C892.297 431.9 886.697 437.4 886.697 444.3V473.2H886.797Z" fill="#E54F38"/>
<path d="M866.9 466.2H945.9C948.1 466.2 949.8 468 949.8 470.1V531.2C949.8 533.4 948 535.1 945.9 535.1H866.9C864.7 535.1 863 533.3 863 531.2V470.1C863 467.9 864.8 466.2 866.9 466.2Z" fill="#FFB0A4"/>
<path d="M913.703 508.2H899.203L902.303 491.9H910.603L913.703 508.2Z" fill="#E54F38"/>
<path d="M913.103 489.6C913.103 485.9 910.103 482.9 906.403 482.9C902.703 482.9 899.703 485.9 899.703 489.6C899.703 493.3 902.703 496.3 906.403 496.3C910.103 496.3 913.103 493.3 913.103 489.6Z" fill="#E54F38"/>
</g>
<g opacity="0.5">
<path d="M529.803 183.7H485.703V154.8C485.703 145.6 493.203 138.2 502.303 138.2H513.103C522.303 138.2 529.703 145.7 529.703 154.8V183.7H529.803ZM493.103 176.3H522.303V154.8C522.303 149.7 518.203 145.6 513.103 145.6H502.303C497.203 145.6 493.103 149.7 493.103 154.8V176.3Z" fill="#E54F38"/>
<path d="M537.2 171H478.4C476.798 171 475.5 172.298 475.5 173.9V219.4C475.5 221.002 476.798 222.3 478.4 222.3H537.2C538.802 222.3 540.1 221.002 540.1 219.4V173.9C540.1 172.298 538.802 171 537.2 171Z" fill="#FFB0A4"/>
<path d="M513.198 202.3H502.398L504.698 190.2H510.898L513.198 202.3Z" fill="#E54F38"/>
<path d="M512.797 188.5C512.797 185.7 510.597 183.5 507.797 183.5C504.997 183.5 502.797 185.7 502.797 188.5C502.797 191.3 504.997 193.5 507.797 193.5C510.597 193.5 512.797 191.3 512.797 188.5Z" fill="#E54F38"/>
</g>
<path d="M840.303 754.2H914.203L887.703 621.1C886.503 615.1 882.203 610.9 877.203 610.9C872.203 610.9 867.903 615.1 866.703 621.1L840.203 754.2H840.303Z" fill="#EB9175"/>
<path d="M828.903 754.8H925.703V745.2H828.903V754.8Z" fill="#C7421B"/>
<path d="M861.805 646.2H892.705L895.705 661.1H858.805L861.805 646.2Z" fill="white"/>
<path d="M903 697.7H851.5L857.8 666.1H896.7L903 697.7Z" fill="white"/>
<path opacity="0.3" d="M880.305 618.5H882.905L901.505 712.1H898.605L880.305 618.5Z" fill="#DE4719"/>
<path opacity="0.3" d="M902.402 716.8L905.802 733.9H902.902L899.602 716.8H902.402Z" fill="#DE4719"/>
<path d="M490.303 754.2H564.203L537.703 621.1C536.503 615.1 532.203 610.9 527.203 610.9C522.203 610.9 517.903 615.1 516.703 621.1L490.203 754.2H490.303Z" fill="#EB9175"/>
<path d="M478.802 754.8H575.602V745.2H478.802V754.8Z" fill="#C7421B"/>
<path d="M511.697 646.2H542.697L545.697 661.1H508.797L511.697 646.2Z" fill="white"/>
<path d="M552.9 697.7H501.5L507.8 666.1H546.7L552.9 697.7Z" fill="white"/>
<path opacity="0.3" d="M530.297 618.5H532.897L551.497 712.1H548.597L530.297 618.5Z" fill="#DE4719"/>
<path opacity="0.3" d="M552.4 716.8L555.8 733.9H552.9L549.5 716.8H552.4Z" fill="#DE4719"/>
<path d="M902.005 249.9H850.305C849.505 249.9 848.805 249.2 848.805 248.4C848.805 247.6 849.505 246.9 850.305 246.9H902.005C902.805 246.9 903.505 247.6 903.505 248.4C903.505 249.2 902.805 249.9 902.005 249.9Z" fill="#E54F38"/>
<path d="M920.202 249.9H910.102C909.302 249.9 908.602 249.2 908.602 248.4C908.602 247.6 909.302 246.9 910.102 246.9H920.202C921.002 246.9 921.702 247.6 921.702 248.4C921.702 249.2 921.002 249.9 920.202 249.9Z" fill="#E54F38"/>
<path d="M308.2 151.3H256.5C255.7 151.3 255 150.6 255 149.8C255 149 255.7 148.3 256.5 148.3H308.2C309 148.3 309.7 149 309.7 149.8C309.7 150.6 309 151.3 308.2 151.3Z" fill="#E54F38"/>
<path d="M326.397 151.3H316.297C315.497 151.3 314.797 150.6 314.797 149.8C314.797 149 315.497 148.3 316.297 148.3H326.397C327.197 148.3 327.897 149 327.897 149.8C327.897 150.6 327.197 151.3 326.397 151.3Z" fill="#E54F38"/>
<path d="M1019.1 585.5H967.398C966.598 585.5 965.898 584.8 965.898 584C965.898 583.2 966.598 582.5 967.398 582.5H1019.1C1019.9 582.5 1020.6 583.2 1020.6 584C1020.6 584.8 1019.9 585.5 1019.1 585.5Z" fill="#E54F38"/>
<path d="M1037.2 585.5H1027.1C1026.3 585.5 1025.6 584.8 1025.6 584C1025.6 583.2 1026.3 582.5 1027.1 582.5H1037.2C1038 582.5 1038.7 583.2 1038.7 584C1038.7 584.8 1038 585.5 1037.2 585.5Z" fill="#E54F38"/>
<path d="M224.802 472H173.102C172.302 472 171.602 471.3 171.602 470.5C171.602 469.7 172.302 469 173.102 469H224.802C225.602 469 226.302 469.7 226.302 470.5C226.302 471.3 225.602 472 224.802 472Z" fill="#E54F38"/>
<path d="M242.905 472H232.805C232.005 472 231.305 471.3 231.305 470.5C231.305 469.7 232.005 469 232.805 469H242.905C243.705 469 244.405 469.7 244.405 470.5C244.405 471.3 243.705 472 242.905 472Z" fill="#E54F38"/>
<path d="M822.403 74.2H575.203V409.4H822.403V74.2Z" fill="#E54F38"/>
<path d="M640.805 213.3V219.4H615.305V186.5H640.205V192.6H622.905V199.7H638.205V205.6H622.905V213.2H640.805V213.3Z" fill="white"/>
<path d="M667.806 219.4L661.506 210.2H654.506V219.4H646.906V186.5H661.106C669.906 186.5 675.406 191.1 675.406 198.4C675.406 205.7 672.906 207 668.606 208.8L676.006 219.4H667.806ZM660.606 192.7H654.406V204.2H660.606C665.306 204.2 667.606 202 667.606 198.5C667.606 195 665.306 192.8 660.606 192.8V192.7Z" fill="white"/>
<path d="M702.306 219.4L696.006 210.2H689.006V219.4H681.406V186.5H695.606C704.406 186.5 709.906 191.1 709.906 198.4C709.906 205.7 707.406 207 703.106 208.8L710.506 219.4H702.306ZM695.206 192.7H689.006V204.2H695.206C699.906 204.2 702.206 202 702.206 198.5C702.206 195 699.906 192.8 695.206 192.8V192.7Z" fill="white"/>
<path d="M713.805 202.9C713.805 193.1 721.405 185.9 731.805 185.9C742.205 185.9 749.805 193.1 749.805 202.9C749.805 212.7 742.105 219.9 731.805 219.9C721.505 219.9 713.805 212.7 713.805 202.9ZM742.105 202.9C742.105 196.7 737.705 192.4 731.805 192.4C725.905 192.4 721.505 196.7 721.505 202.9C721.505 209.1 725.905 213.4 731.805 213.4C737.705 213.4 742.105 209.1 742.105 202.9Z" fill="white"/>
<path d="M776.502 219.4L770.202 210.2H763.202V219.4H755.602V186.5H769.802C778.602 186.5 784.102 191.1 784.102 198.4C784.102 205.7 781.602 207 777.302 208.8L784.702 219.4H776.502ZM769.402 192.7H763.202V204.2H769.402C774.102 204.2 776.402 202 776.402 198.5C776.402 195 774.102 192.8 769.402 192.8V192.7Z" fill="white"/>
<path d="M606.1 370.9V378.5H617V381.2H606.1V390H603V368.3H618.3V371H606.1V370.9Z" fill="white"/>
<path d="M620.602 379.1C620.602 372.7 625.502 368 632.202 368C638.902 368 643.702 372.7 643.702 379.1C643.702 385.5 638.802 390.2 632.202 390.2C625.602 390.2 620.602 385.5 620.602 379.1ZM640.602 379.1C640.602 374.3 637.002 370.8 632.202 370.8C627.402 370.8 623.702 374.3 623.702 379.1C623.702 383.9 627.302 387.4 632.202 387.4C637.102 387.4 640.602 383.9 640.602 379.1Z" fill="white"/>
<path d="M662.897 389.9L658.197 383.2C657.797 383.2 657.297 383.2 656.797 383.2H651.397V389.8H648.297V368.1H656.797C662.397 368.1 665.797 371 665.797 375.7C665.797 380.4 664.097 381.5 660.997 382.5L666.097 389.8H662.697L662.897 389.9ZM662.797 375.8C662.797 372.7 660.697 370.9 656.797 370.9H651.497V380.7H656.797C660.797 380.7 662.797 378.9 662.797 375.8Z" fill="white"/>
<path d="M689.598 384.1C689.598 387.8 686.798 390 681.298 390H670.898V368.3H680.598C685.598 368.3 688.398 370.4 688.398 373.9C688.398 377.4 687.198 377.9 685.498 378.7C687.898 379.4 689.598 381.2 689.598 384.1ZM674.098 370.8V377.7H680.498C683.698 377.7 685.498 376.5 685.498 374.2C685.498 371.9 683.698 370.7 680.498 370.7H674.098V370.8ZM686.498 383.8C686.498 381.3 684.598 380.2 681.198 380.2H674.098V387.4H681.198C684.598 387.4 686.498 386.3 686.498 383.8Z" fill="white"/>
<path d="M694.398 368.2H697.498V389.9H694.398V368.2Z" fill="white"/>
<path d="M704 368.2H713.1C720.1 368.2 724.8 372.6 724.8 379C724.8 385.4 720.1 389.8 713.1 389.8H704V368.1V368.2ZM713 387.2C718.4 387.2 721.8 383.9 721.8 379C721.8 374.1 718.4 370.8 713 370.8H707.1V387.1H713V387.2Z" fill="white"/>
<path d="M729.602 368.2H738.702C745.702 368.2 750.402 372.6 750.402 379C750.402 385.4 745.702 389.8 738.702 389.8H729.602V368.1V368.2ZM738.602 387.2C744.002 387.2 747.402 383.9 747.402 379C747.402 374.1 744.002 370.8 738.602 370.8H732.702V387.1H738.602V387.2Z" fill="white"/>
<path d="M770.903 387.2V389.9H755.203V368.2H770.503V370.9H758.303V377.6H769.203V380.2H758.303V387.2H770.903Z" fill="white"/>
<path d="M794.6 368.2V389.9H792.1L779.1 373.7V389.9H776V368.2H778.5L791.5 384.4V368.2H794.6Z" fill="white"/>
<path d="M698.798 170.1C720.282 170.1 737.698 152.684 737.698 131.2C737.698 109.716 720.282 92.2999 698.798 92.2999C677.315 92.2999 659.898 109.716 659.898 131.2C659.898 152.684 677.315 170.1 698.798 170.1Z" fill="#E44343"/>
<path d="M627.7 516.1H606V754.8H627.7V516.1Z" fill="#969696"/>
<path d="M627.952 528.737C634.547 522.609 634.925 512.296 628.797 505.701C622.669 499.106 612.355 498.728 605.761 504.856C599.166 510.984 598.788 521.298 604.916 527.892C611.044 534.487 621.358 534.865 627.952 528.737Z" fill="#E7685B"/>
<path d="M791.7 516.1H770V754.8H791.7V516.1Z" fill="#969696"/>
<path d="M791.691 527.458C798.339 521.388 798.807 511.078 792.737 504.43C786.666 497.783 776.356 497.314 769.709 503.385C763.061 509.455 762.593 519.765 768.663 526.413C774.733 533.06 785.043 533.529 791.691 527.458Z" fill="#E7685B"/>
<path d="M707.206 499.8H690.406V559.4H707.206V499.8Z" fill="#A7A9AC"/>
<path d="M825.403 543.6H572.203V587.9H825.403V543.6Z" fill="#FFB0A4"/>
<path d="M592.702 587.9H572.602L593.702 543.6H613.802L592.702 587.9Z" fill="#E54F38"/>
<path d="M645.506 587.9H625.406L646.506 543.6H666.606L645.506 587.9Z" fill="#E54F38"/>
<path d="M698.303 587.9H678.203L699.303 543.6H719.403L698.303 587.9Z" fill="#E54F38"/>
<path d="M751.1 587.9H731L752.1 543.6H772.2L751.1 587.9Z" fill="#E54F38"/>
<path d="M803.905 587.9H783.805L804.905 543.6H825.005L803.905 587.9Z" fill="#E54F38"/>
<path d="M825.403 610.1H572.203V654.4H825.403V610.1Z" fill="#FFB0A4"/>
<path d="M592.702 654.4H572.602L593.702 610.1H613.802L592.702 654.4Z" fill="#E54F38"/>
<path d="M645.506 654.4H625.406L646.506 610.1H666.606L645.506 654.4Z" fill="#E54F38"/>
<path d="M698.303 654.4H678.203L699.303 610.1H719.403L698.303 654.4Z" fill="#E54F38"/>
<path d="M751.1 654.4H731L752.1 610.1H772.2L751.1 654.4Z" fill="#E54F38"/>
<path d="M803.905 654.4H783.805L804.905 610.1H825.005L803.905 654.4Z" fill="#E54F38"/>
<path d="M710.043 518.378C730.535 512.113 742.068 490.421 735.803 469.929C729.538 449.437 707.847 437.903 687.355 444.169C666.862 450.434 655.329 472.125 661.594 492.617C667.859 513.11 689.55 524.643 710.043 518.378Z" fill="#E44343"/>
<path d="M722.503 475H675.203V487.1H722.503V475Z" fill="white"/>
<path d="M627.006 516.1C627.006 510.4 622.406 505.8 616.706 505.8C611.006 505.8 606.406 510.4 606.406 516.1C606.406 521.8 611.006 526.4 616.706 526.4C622.406 526.4 627.006 521.8 627.006 516.1Z" fill="#EE8C70"/>
<path d="M791.006 516.1C791.006 510.4 786.406 505.8 780.706 505.8C775.006 505.8 770.406 510.4 770.406 516.1C770.406 521.8 775.006 526.4 780.706 526.4C786.406 526.4 791.006 521.8 791.006 516.1Z" fill="#EE8C70"/>
<path d="M618.206 673.2H617.406V754.8H618.206V673.2Z" fill="#6D6E71"/>
<path d="M610.402 689.6H609.602V754.8H610.402V689.6Z" fill="#6D6E71"/>
<path d="M787.402 689.6H786.602V754.8H787.402V689.6Z" fill="#6D6E71"/>
<path d="M615.402 708H614.602V754.8H615.402V708Z" fill="#6D6E71"/>
<path d="M777.003 708H776.203V754.8H777.003V708Z" fill="#6D6E71"/>
<path d="M1096.79 757.8H1045.09C1044.29 757.8 1043.59 757.1 1043.59 756.3C1043.59 755.5 1044.29 754.8 1045.09 754.8H1096.79C1097.59 754.8 1098.29 755.5 1098.29 756.3C1098.29 757.1 1097.59 757.8 1096.79 757.8Z" fill="#E54F38"/>
<path d="M1029.2 757.8H1008.9C1008.1 757.8 1007.4 757.1 1007.4 756.3C1007.4 755.5 1008.1 754.8 1008.9 754.8H1029.2C1030 754.8 1030.7 755.5 1030.7 756.3C1030.7 757.1 1030 757.8 1029.2 757.8Z" fill="#E54F38"/>
<path d="M1002.3 757.8H93.7969C92.9969 757.8 92.2969 757.1 92.2969 756.3C92.2969 755.5 92.9969 754.8 93.7969 754.8H1002.3C1003.1 754.8 1003.8 755.5 1003.8 756.3C1003.8 757.1 1003.1 757.8 1002.3 757.8Z" fill="#E54F38"/>
<path d="M683.195 128.5H709.395V143.9C709.395 150.5 704.095 155.8 697.495 155.8H695.195C688.595 155.8 683.295 150.5 683.295 143.9V128.5H683.195Z" fill="white"/>
<path d="M686.197 146.1C684.597 146.1 683.297 144.8 683.297 143.2V115.1C683.297 113.5 684.597 112.2 686.197 112.2C687.797 112.2 689.097 113.5 689.097 115.1V143.2C689.097 144.8 687.797 146.1 686.197 146.1Z" fill="white"/>
<path d="M718.927 127.318L719.257 127.545C720.738 128.567 721.121 130.654 720.099 132.135L706.698 151.561C705.676 153.043 703.589 153.426 702.108 152.404L701.778 152.177C700.297 151.154 699.914 149.068 700.936 147.586L714.337 128.16C715.359 126.679 717.446 126.296 718.927 127.318Z" fill="white"/>
<path d="M692.892 142.2C691.292 142.2 689.992 140.9 689.992 139.3V111.2C689.992 109.6 691.292 108.3 692.892 108.3C694.492 108.3 695.792 109.6 695.792 111.2V139.3C695.792 140.9 694.492 142.2 692.892 142.2Z" fill="white"/>
<path d="M699.697 138.6C698.097 138.6 696.797 137.3 696.797 135.7V107.6C696.797 106 698.097 104.7 699.697 104.7C701.297 104.7 702.597 106 702.597 107.6V135.7C702.597 137.3 701.297 138.6 699.697 138.6Z" fill="white"/>
<path d="M706.494 141.2C704.894 141.2 703.594 139.9 703.594 138.3V110.2C703.594 108.6 704.894 107.3 706.494 107.3C708.094 107.3 709.394 108.6 709.394 110.2V138.3C709.394 139.9 708.094 141.2 706.494 141.2Z" fill="white"/>
<path d="M383.5 221.9V255.1L398.1 257.1L412.8 255.1V221.9H383.5Z" fill="#F3AC85"/>
<path d="M412.8 246.4V249.8C412.8 249.8 394.2 248.2 386.4 240.4C378.6 232.6 381.1 224 381.1 224H412.8V246.4Z" fill="#E08065"/>
<path d="M426.896 198.6C425.296 195.7 422.796 197.5 421.896 198.3L422.496 190.6C422.496 181.4 414.996 173.9 405.796 173.9H390.596C381.396 173.9 373.896 181.4 373.896 190.6L374.496 198.3C373.596 197.5 371.096 195.7 369.396 198.6C367.496 202 371.996 213.7 375.596 212.8L376.196 220.8C376.196 232.4 385.596 241.8 397.196 241.8H398.996C410.596 241.8 419.996 232.4 419.996 220.8L420.596 212.8C424.196 213.7 428.696 202 426.796 198.6H426.896Z" fill="#F3AC85"/>
<path d="M411.698 194.1C411.698 194.1 419.498 228.9 408.398 239.6C415.298 236.2 420.098 229 420.098 220.8L420.698 212.8C424.298 213.7 428.798 202 426.898 198.6C425.298 195.7 422.798 197.5 421.898 198.3L422.198 194.1H411.798H411.698Z" fill="#E08065"/>
<path d="M353.697 405.5L309.997 325.5L281.797 343.4L336.597 417.8C342.197 426.2 354.197 429.5 358.997 426.3C368.397 420 361.297 408.5 353.697 405.6V405.5Z" fill="#F3AC85"/>
<path d="M447.995 739.1L447.495 573.6C447.495 572.6 447.495 571.6 447.395 570.5L442.995 430.9C442.995 430.1 442.995 429.3 442.995 428.6V427.9C442.795 426.4 442.495 424.8 442.095 423.2C440.895 419 438.695 415.4 435.795 412.5L435.195 403.7L395.695 398.1L356.095 403.7L355.595 412.4C351.995 416 349.495 420.7 348.495 426.1C348.295 427 348.195 427.8 348.195 428.7L343.595 568.9C343.595 569.3 343.495 569.7 343.395 570.1C343.395 570.7 343.395 571.4 343.395 572L335.295 737.3C335.295 737.3 335.295 737.4 335.295 737.5C334.695 742.8 338.595 747.5 343.795 748C346.795 748.3 349.595 747.2 351.495 745.3C352.995 743.8 354.095 741.8 354.295 739.5L379.695 577.5C379.995 576.3 380.195 575 380.295 573.7L395.595 461.4L410.695 573C410.695 573.2 410.695 573.3 410.695 573.5C410.695 574.2 410.795 574.8 410.895 575.4L429.095 739.9C429.095 739.9 429.095 740 429.095 740.1C429.395 745.4 433.895 749.4 439.195 749.2C444.495 748.9 448.495 744.4 448.295 739.1H447.995Z" fill="#323345"/>
<path d="M448 739.1L447.5 573.6C447.5 572.6 447.5 571.6 447.4 570.5L443 430.9C443 430.1 443 429.3 443 428.6V427.9C442.8 426.4 442.5 424.8 442.1 423.2C440.9 419 438.7 415.4 435.8 412.5L435.4 407.1L397.2 407.9L377.5 412.3C377.5 412.3 418.6 416.3 423.8 418.6C429 421 437.9 425 437.5 439.9C437.3 449.8 443.7 706.8 444.9 746.7C447 744.8 448.3 742.1 448.1 739L448 739.1Z" fill="#1C1C28"/>
<path d="M356 403.7L355.5 412.4H435.7L435.1 403.7H356Z" fill="#01051A"/>
<path d="M610.9 285.4C610 283.3 608.4 283.8 606.3 284.6L595 289.7L588.5 292.9L589.8 290C590.9 288.1 590.2 285.8 588.6 285C586.6 283.9 584.9 284.7 583.8 286.7L576.9 298.4C576.9 298.4 576.9 298.6 576.8 298.7L576.3 298.9L488 325.3L499.7 356.6L583.8 318.4C583.8 318.4 583.8 318.4 583.9 318.4C583.9 318.4 583.9 318.4 584 318.4L604 312.1C605 311.1 605.4 308.8 604.9 307.5L601.1 293.2L608.5 289.4C610.7 288.1 611.6 287.3 610.9 285.6V285.4Z" fill="#F3AC85"/>
<path d="M570.896 300.3L499.696 321.6L455.596 267.3C454.596 265.2 452.996 263.1 450.796 261.2C446.396 257.1 440.696 255.1 434.696 255.1C434.596 255.1 434.496 255.1 434.396 255.1H361.096C353.296 255.1 345.996 259 341.696 265.7L284.496 322.2C278.596 327.6 277.396 336.7 281.696 343.5L281.796 343.7C282.196 344.3 282.596 344.8 282.996 345.3L333.196 413.4L351.396 401.7L316.896 338.5L343.296 315.7L355.796 403.9H434.896L450.596 319.3L480.896 352C485.896 357.8 494.596 359.5 501.396 355.8L578.396 320.8L570.696 300.5L570.896 300.3Z" fill="white"/>
<path d="M412.7 255.1L398.1 268.3L383.5 255.1L397.1 250.9L412.7 255.1Z" fill="#F3AC85"/>
<path d="M398.094 268.3L413.694 278.7L416.694 266.4L413.994 280.8L398.194 272.6L383.194 280.4L379.094 266.4L383.494 278.3L398.094 268.3Z" fill="#58595B"/>
<path d="M401.794 278.1L404.294 272.4L398.094 268.3L391.894 272.5L394.394 278.1L387.594 382.1L397.194 391.4L406.594 382.1L401.794 278.1Z" fill="#FB505A"/>
<path d="M420.398 210.4C420.598 205 420.798 201 421.798 198.1C423.698 192.5 422.298 180.7 419.298 178.5C414.198 174.8 400.998 175.1 392.698 173.9C389.498 173.4 375.398 178.7 373.698 182.6C372.498 185.3 369.798 186.6 371.198 189.6C372.298 191.9 373.998 196.5 374.398 198.3L375.498 209C375.498 209 377.198 209.5 377.698 205.8C378.098 202.1 381.198 203.6 382.098 197.5C382.498 194.8 376.698 184.1 384.998 183.4C393.198 182.6 404.298 184.5 409.298 181.4C409.298 181.4 409.298 188.2 414.798 188.7C422.898 189.4 416.598 196.1 416.798 200.3C417.198 207.9 420.298 210.5 420.298 210.5L420.398 210.4Z" fill="black"/>
<path d="M429.998 186.6C429.998 195.9 415.698 200.9 398.198 200.9C380.698 200.9 366.398 195.9 366.398 186.6C366.398 177.3 374.198 176.5 382.198 171.5C387.398 168.2 391.298 163.2 398.298 163.2C405.298 163.2 408.398 168.3 413.798 171.7C421.498 176.7 430.198 181.1 430.198 186.6H429.998Z" fill="#282A3A"/>
<path d="M398.197 199.6C391.197 199.6 384.697 199.2 379.297 198.4C380.097 202.5 388.197 208.4 398.197 208.4C408.197 208.4 416.197 202.5 417.097 198.4C411.797 199.1 405.297 199.6 398.197 199.6Z" fill="#686A75"/>
<path d="M367 189.9C370 197.1 382.8 200.9 398.2 200.9C413.6 200.9 426.4 197.1 429.4 189.9C422.3 191.5 411 192.5 398.2 192.5C385.4 192.5 374.1 191.5 367 189.9Z" fill="#3D3F4E"/>
<path d="M411.695 303.7H438.595L437.795 321.7L424.895 330.3L412.995 321.7L411.695 303.7Z" fill="#A7A9AC"/>
<path d="M356.5 303.7H383.4L382.5 321.7L369.6 330.3L357.7 321.7L356.5 303.7Z" fill="#A7A9AC"/>
<path d="M353.5 256.6H380.9C381.7 256.6 382.4 255.7 382.4 254.7C382.4 253.6 381.7 252.8 380.9 252.8H353.5C352.7 252.8 352 253.7 352 254.7C352 255.8 352.7 256.6 353.5 256.6Z" fill="#A7A9AC"/>
<path d="M401.497 402.6H389.597C388.603 402.6 387.797 403.406 387.797 404.4V411.7C387.797 412.694 388.603 413.5 389.597 413.5H401.497C402.491 413.5 403.297 412.694 403.297 411.7V404.4C403.297 403.406 402.491 402.6 401.497 402.6Z" stroke="#BCBEC0" stroke-width="3" stroke-miterlimit="10"/>
<path d="M394.697 409.2H390.997C390.297 409.2 389.797 408.7 389.797 408C389.797 407.3 390.297 406.8 390.997 406.8H394.697C395.397 406.8 395.897 407.3 395.897 408C395.897 408.7 395.397 409.3 394.697 409.3V409.2Z" fill="#BCBEC0"/>
<path d="M398.2 194.1C390.6 190.5 392 181.1 392 181.1C392 181.1 395.8 184.4 398.2 181.1C400.7 184.4 404.4 181.1 404.4 181.1C404.4 181.1 405.7 190.5 398.2 194.1Z" fill="#E6E7E8"/>
<path d="M404.403 181.1C404.403 181.1 405.703 190.5 398.203 194.1V181.1C400.703 184.4 404.403 181.1 404.403 181.1Z" fill="#A7A9AC"/>
<path d="M369.895 296.4C362.295 292.8 363.695 283.4 363.695 283.4C363.695 283.4 367.495 286.7 369.895 283.4C372.395 286.7 376.095 283.4 376.095 283.4C376.095 283.4 377.395 292.8 369.895 296.4Z" fill="#EA6968"/>
<path d="M376.098 283.3C376.098 283.3 377.398 292.7 369.898 296.3V283.3C372.398 286.6 376.098 283.3 376.098 283.3Z" fill="#E44343"/>
<path d="M369.894 316C369.894 316 369.794 316 369.694 316L358.994 311.9C358.694 311.9 358.594 311.5 358.694 311.3C358.694 311 359.094 310.9 359.294 311L369.894 315L380.594 311C380.894 311 381.094 311 381.194 311.3C381.194 311.6 381.194 311.8 380.894 311.9L370.094 316C370.094 316 369.994 316 369.894 316Z" fill="#808285"/>
<path d="M329.493 407.9C329.293 407.9 329.193 407.9 329.093 407.7C328.893 407.5 329.093 407.2 329.193 407L345.893 396.1C346.093 395.9 346.393 396.1 346.593 396.2C346.793 396.4 346.593 396.7 346.493 396.9L329.793 407.8C329.793 407.8 329.593 407.8 329.493 407.8V407.9Z" fill="#808285"/>
<path d="M425.097 316C425.097 316 424.997 316 424.897 316L414.197 311.9C413.897 311.9 413.797 311.5 413.897 311.3C413.897 311 414.297 310.9 414.497 311L425.097 315L435.797 311C436.097 311 436.297 311 436.397 311.3C436.397 311.6 436.397 311.8 436.097 311.9L425.297 316C425.297 316 425.197 316 425.097 316Z" fill="#808285"/>
<path d="M351.897 254.7C351.897 255.8 352.597 256.6 353.397 256.6H380.797C381.597 256.6 382.297 255.7 382.297 254.7H351.797H351.897Z" fill="#808285"/>
<path d="M415.695 256.6H443.095C443.895 256.6 444.595 255.7 444.595 254.7C444.595 253.6 443.895 252.8 443.095 252.8H415.695C414.895 252.8 414.195 253.7 414.195 254.7C414.195 255.8 414.895 256.6 415.695 256.6Z" fill="#A7A9AC"/>
<path d="M414.194 254.7C414.194 255.8 414.894 256.6 415.694 256.6H443.094C443.894 256.6 444.594 255.7 444.594 254.7H414.094H414.194Z" fill="#808285"/>
<path d="M371.398 311.4C371.398 310.6 370.698 309.9 369.898 309.9C369.098 309.9 368.398 310.6 368.398 311.4C368.398 312.2 369.098 312.9 369.898 312.9C370.698 312.9 371.398 312.2 371.398 311.4Z" fill="#808285"/>
<path d="M426.695 311.4C426.695 310.6 425.995 309.9 425.195 309.9C424.395 309.9 423.695 310.6 423.695 311.4C423.695 312.2 424.395 312.9 425.195 312.9C425.995 312.9 426.695 312.2 426.695 311.4Z" fill="#808285"/>
<path d="M335.295 408.7C335.295 408 334.695 407.4 333.995 407.4C333.295 407.4 332.695 408 332.695 408.7C332.695 409.4 333.295 410 333.995 410C334.695 410 335.295 409.4 335.295 408.7Z" fill="#808285"/>
<path d="M572.897 323.1C572.697 323.1 572.497 323 572.397 322.8L564.897 304.3C564.797 304 564.897 303.8 565.197 303.6C565.497 303.5 565.697 303.6 565.897 303.9L573.397 322.4C573.497 322.7 573.397 322.9 573.097 323.1C573.097 323.1 572.997 323.1 572.897 323.1Z" fill="#808285"/>
<path d="M574.998 317.5C574.298 317.4 573.598 317.8 573.398 318.6C573.298 319.3 573.698 320 574.498 320.2C575.198 320.3 575.898 319.9 576.098 319.1C576.198 318.4 575.798 317.7 574.998 317.5Z" fill="#808285"/>
<path d="M414.498 448.8C394.798 463.5 378.098 448.8 378.098 448.8C382.698 458.4 389.798 461.5 389.798 461.5L349.398 746.8C350.098 746.4 350.698 745.9 351.298 745.4C352.798 743.9 353.898 741.9 354.098 739.6L379.498 577.6C379.798 576.4 379.998 575.1 380.098 573.8L395.398 461.5L410.498 573.1C410.498 573.3 410.498 573.4 410.498 573.6C410.498 574.3 410.598 574.9 410.698 575.5L414.398 609.2L401.198 462.9C408.298 458.3 414.398 448.7 414.398 448.7L414.498 448.8Z" fill="#1C1C28"/>
<path d="M355.695 746.8C354.395 745.6 352.195 742.5 352.195 742.5C352.195 742.5 348.795 739.3 343.295 739.3C337.795 739.3 334.595 742.3 334.595 742.3C334.595 742.3 332.495 745.5 331.195 746.7C328.695 748.9 328.695 756.1 328.695 756.1H357.995C357.995 756.1 358.195 748.9 355.695 746.7V746.8Z" fill="black"/>
<path d="M450.195 747.8C448.895 746.6 446.695 743.5 446.695 743.5C446.695 743.5 443.295 740.3 437.795 740.3C432.295 740.3 429.095 743.3 429.095 743.3C429.095 743.3 426.995 746.5 425.695 747.7C423.195 749.9 423.195 757.1 423.195 757.1H452.495C452.495 757.1 452.695 749.9 450.195 747.7V747.8Z" fill="black"/>
<path d="M502.198 320.9L499.698 321.6L497.398 318.8C499.198 327.5 497.398 334.1 497.398 334.1C499.198 327.4 502.098 320.8 502.098 320.8L502.198 320.9Z" fill="#BCBEC0"/>
<path d="M359.195 376.5C355.095 350.3 347.295 306.5 347.295 306.5L313.195 337.6L349.495 403L351.595 401.7L317.095 338.5L343.495 315.7L355.995 403.9H383.595C383.595 403.9 363.295 402.9 359.195 376.7V376.5Z" fill="#A7A9AC"/>
<path d="M487.898 351.1L447.998 310L436.398 396.5L450.798 319.1L481.098 351.8C486.098 357.6 494.798 359.3 501.598 355.6L505.398 353.9C491.698 355.4 487.898 351.2 487.898 351.2V351.1Z" fill="#A7A9AC"/>
<path d="M614.36 314.44V300.76L637.64 248.56H661.76V300.76H668.36V314.44H661.76V334H643.16V314.44H614.36ZM642.92 266.32L627.56 300.76H643.16V266.32H642.92ZM702.784 316.24V266.32C702.784 262.12 700.504 260.56 697.384 260.56C694.264 260.56 692.104 262.12 692.104 266.32V316.24C692.104 320.44 694.264 322 697.384 322C700.504 322 702.784 320.44 702.784 316.24ZM722.704 271.84V312.4C722.704 328.72 712.864 335.68 697.504 335.68C682.384 335.68 672.184 328.72 672.184 312.4V271.84C672.184 251.68 686.584 246.88 697.744 246.88C711.304 246.88 722.704 251.68 722.704 271.84ZM727.728 300.04H747.648V315.4C747.648 319.36 749.688 322 753.048 322C756.408 322 758.568 319.36 758.568 315.4V294.16C758.568 290.2 756.528 287.56 753.168 287.56C750.528 287.56 747.648 290.92 747.648 293.56H727.728V248.56H777.888V261.04H746.688C746.448 266.44 746.088 271.84 745.848 277.24H746.088C751.128 272.92 756.048 271.36 760.968 271.36C771.288 271.36 778.488 277.6 778.488 291.52V311.44C778.488 329.92 766.008 335.68 753.048 335.68C739.368 335.68 727.728 328.72 727.728 316.36V300.04Z" fill="white"/>
</g>
<defs>
<clipPath id="clip0_489_2">
<rect width="1190.5" height="841.9" fill="white"/>
</clipPath>
</defs>
</svg>
