<?xml version="1.0" encoding="UTF-8"?>
<svg xmlns="http://www.w3.org/2000/svg" version="1.1" viewBox="0 0 500 361.4">
  <defs>
    <style>
      .cls-1 {
        fill: #efa748;
      }

      .cls-2 {
        fill: #8cb0ea;
      }

      .cls-3 {
        fill: #0e4f77;
      }

      .cls-4 {
        fill: #5472d1;
      }

      .cls-5 {
        fill: #2d2d2d;
      }

      .cls-6 {
        fill: #fff;
      }

      .cls-7 {
        fill: #f8b690;
      }

      .cls-8, .cls-9, .cls-10 {
        stroke: #8cb0ea;
        stroke-width: 2px;
      }

      .cls-8, .cls-9, .cls-10, .cls-11 {
        fill: none;
        stroke-miterlimit: 10;
      }

      .cls-12 {
        fill: #3459b7;
      }

      .cls-13 {
        fill: #f4bd4e;
      }

      .cls-14 {
        fill: #62c1c5;
      }

      .cls-15 {
        fill: #bcbec0;
      }

      .cls-9 {
        stroke-dasharray: 4.9 4.9;
      }

      .cls-16 {
        fill: #6b8bdb;
      }

      .cls-17 {
        fill: #ef9d75;
      }

      .cls-18 {
        fill: #fed4d5;
      }

      .cls-19 {
        fill: #a6c0f4;
      }

      .cls-20 {
        display: none;
      }

      .cls-21 {
        fill: #e89234;
      }

      .cls-22 {
        fill: #45adad;
      }

      .cls-23 {
        fill: #d4e1ff;
      }

      .cls-10 {
        stroke-dasharray: 5;
      }

      .cls-24 {
        fill: #fbb040;
      }

      .cls-25 {
        fill: #e9f0ff;
      }

      .cls-26 {
        fill: #e6e7e8;
      }

      .cls-11 {
        stroke: #45adad;
        stroke-width: 3px;
      }

      .cls-27 {
        fill: #0a3c5f;
      }

      .cls-28 {
        fill: #d1d3d4;
      }
    </style>
  </defs>
  <!-- Generator: Adobe Illustrator 28.6.0, SVG Export Plug-In . SVG Version: 1.2.0 Build 709)  -->
  <g>
    <g id="Layer_1">
      <g id="OBJECTS">
        <g>
          <path class="cls-23" d="M342,105s8-22.8,38.6-9.5c30.6,13.3,57-7.6,64.5,5.4,7.3,12.7-22,27.5-14.1,48.9,5.6,15.3,50.5,12.8,37.6,40.5-12.9,27.7-69.6,22-74.5,19.5-4.9-2.5-46.8-33.3-46.8-33.3l-5.3-71.5Z"/>
          <path class="cls-23" d="M69.2,187.2s-29.5-41.1-8.5-55.6c31.2-21.6,57,59.6,106.7,51,49.7-8.6,67.9-2,77.5,22.9,9.5,24.9,8.9,52.4,46.6,55.6,37.7,3.2,49.2,24.4,49.2,24.4H71.9l-2.7-98.2Z"/>
        </g>
        <g>
          <path class="cls-22" d="M173.7,120.3c-5.6,0-10.2-4.4-10.2-10,0-5.6,4.4-10.2,10-10.2,5.6,0,10.2,4.4,10.2,10,0,5.6-4.4,10.2-10,10.2Z"/>
          <path class="cls-22" d="M230.1,104.8c0-.4-.4-.8-.8-.8l-13.3-2.8c-.4-1.8-.9-3.6-1.5-5.3l9.8-9.3c.4-.2.5-.7.3-1.1l-4.8-8.1c-.2-.4-.7-.5-1.1-.3l-12.9,4.2c-1.2-1.4-2.5-2.7-3.9-3.9l3.9-13c.2-.4,0-.9-.3-1.1l-8.3-4.6c-.4-.2-.9,0-1.1.3l-9.1,10.1c-1.7-.6-3.5-1-5.4-1.4l-3.1-13.2c0-.4-.4-.8-.8-.8h-9.5c-.4.1-.8.5-.8.9l-2.8,13.3c-1.8.4-3.6.9-5.3,1.5l-9.3-9.8c-.2-.4-.7-.5-1.1-.3l-8.2,4.8c-.4.2-.5.7-.3,1.1l4.2,12.9c-1.4,1.2-2.7,2.5-3.9,3.9l-13-3.9c-.4-.2-.9,0-1.1.3l-4.6,8.3c-.2.4,0,.9.3,1.1l10.1,9.1c-.6,1.7-1,3.5-1.4,5.4l-13.2,3.1c-.4,0-.8.4-.8.8v9.5c.1.4.5.8.9.8l13.3,2.9c.4,1.8.9,3.6,1.5,5.3l-9.8,9.3c-.4.2-.5.7-.3,1.1l4.8,8.2c.2.4.7.5,1.1.3l12.9-4.2c1.2,1.4,2.6,2.7,3.9,3.9l-3.9,13c-.2.4,0,.9.3,1.1l8.3,4.6c.4.2.9,0,1.1-.3l9.1-10.1c1.7.6,3.5,1,5.4,1.4l3.2,13.2c0,.4.4.8.8.8h9.5c.4-.1.8-.5.8-.9l2.8-13.3c1.8-.4,3.6-.9,5.3-1.5l9.3,9.8c.2.4.7.5,1.1.3l8.2-4.8c.4-.2.5-.7.3-1.1l-4.2-12.9c1.4-1.2,2.7-2.5,3.9-3.9l13,3.9c.4.2.9,0,1.1-.3l4.6-8.3c.2-.4,0-.9-.3-1.1l-10.1-9.1c.6-1.7,1-3.5,1.4-5.4l13.2-3.2c.4,0,.8-.4.8-.8v-9.5ZM174,146.2c-19.9.2-36.2-15.7-36.4-35.6-.2-19.9,15.7-36.2,35.6-36.4,19.9-.2,36.2,15.7,36.4,35.6.2,19.9-15.7,36.2-35.6,36.4Z"/>
          <path class="cls-11" d="M174,140.6c-16.8.2-30.5-13.3-30.7-30-.2-16.8,13.3-30.6,30-30.7,16.8-.2,30.6,13.3,30.7,30,.2,16.8-13.3,30.5-30,30.7Z"/>
        </g>
        <g>
          <path class="cls-23" d="M480.3,290.9H17.7c-5,0-9.1-3.5-9.1-7.8h0c0-4.3,4.1-7.8,9.1-7.8h462.5c5,0,9.1,3.5,9.1,7.8h0c0,4.3-4.1,7.8-9.1,7.8Z"/>
          <path class="cls-23" d="M369.7,322H42.8c-5,0-9.1-3.5-9.1-7.8h0c0-4.3,4.1-7.8,9.1-7.8h326.8c5,0,9.1,3.5,9.1,7.8h0c0,4.3-4.1,7.8-9.1,7.8Z"/>
          <path class="cls-23" d="M441.1,322h-39.2c-5,0-9.1-3.5-9.1-7.8h0c0-4.3,4.1-7.8,9.1-7.8h39.2c5,0,9.1,3.5,9.1,7.8h0c0,4.3-4.1,7.8-9.1,7.8Z"/>
          <path class="cls-23" d="M106.8,298.6c0-4.3,4.1-7.8,9.1-7.8h-52.6c5,0,9.1,3.5,9.1,7.8s-4.1,7.8-9.1,7.8h52.6c-5,0-9.1-3.5-9.1-7.8Z"/>
          <path class="cls-23" d="M132.2,353h185.5c5,0,9.1-3.5,9.1-7.8h0c0-4.3-4.1-7.8-9.1-7.8h-185.5c-5,0-9.1,3.5-9.1,7.8h0c0,4.3,4.1,7.8,9.1,7.8Z"/>
          <path class="cls-23" d="M253.7,329.7c0-4.3-4.1-7.8-9.1-7.8h52.6c-5,0-9.1,3.5-9.1,7.8s4.1,7.8,9.1,7.8h-52.6c5,0,9.1-3.5,9.1-7.8Z"/>
        </g>
        <g>
          <path class="cls-6" d="M336.7,275.3h79.2c4,0,7.3-3.3,7.3-7.3V116.2c0-4-3.3-7.3-7.3-7.3h-79.2c-4,0-7.3,3.3-7.3,7.3v151.8c0,4,3.3,7.3,7.3,7.3Z"/>
          <path class="cls-14" d="M330,275.3h79.2c4,0,7.3-3.3,7.3-7.3V116.2c0-4-3.3-7.3-7.3-7.3h-79.2c-4,0-7.3,3.3-7.3,7.3v151.8c0,4,3.3,7.3,7.3,7.3Z"/>
          <path class="cls-27" d="M406,115.7h-14.7c-1.8,0-3.2,1.4-3.2,3.2h0c0,1.5-1.2,2.7-2.7,2.7h-31.6c-1.5,0-2.7-1.2-2.7-2.7h0c0-1.8-1.4-3.2-3.2-3.2h-14.7c-2,0-3.7,1.7-3.7,3.7v145.4c0,2,1.7,3.7,3.7,3.7h72.8c2,0,3.7-1.7,3.7-3.7V119.4c0-2-1.7-3.7-3.7-3.7Z"/>
          <path class="cls-22" d="M409.3,108.8h-39.6v166.5h39.6c4,0,7.3-3.3,7.3-7.3V116.2c0-4-3.3-7.3-7.3-7.3Z"/>
          <path class="cls-27" d="M404.9,115.7h-14.7c-1.8,0-3.2,1.4-3.2,3.2h0c0,1.5-1.2,2.7-2.7,2.7h-15.8v146.9h36.4c2,0,3.7-1.7,3.7-3.7V119.4c0-2-1.7-3.7-3.7-3.7Z"/>
          <path class="cls-27" d="M373.6,118h-15.5c-.6,0-1.2-.5-1.2-1.2h0c0-.6.5-1.2,1.2-1.2h15.5c.6,0,1.2.5,1.2,1.2h0c0,.6-.5,1.2-1.2,1.2Z"/>
          <path class="cls-27" d="M379.3,116.9c0,.6-.5,1.2-1.2,1.2s-1.2-.5-1.2-1.2.5-1.2,1.2-1.2,1.2.5,1.2,1.2Z"/>
          <path class="cls-27" d="M382.9,116.9c0,.6-.5,1.2-1.2,1.2s-1.2-.5-1.2-1.2.5-1.2,1.2-1.2,1.2.5,1.2,1.2Z"/>
        </g>
        <g>
          <g>
            <path class="cls-6" d="M161.3,275.3h-79.2c-4,0-7.3-3.3-7.3-7.3V116.2c0-4,3.3-7.3,7.3-7.3h79.2c4,0,7.3,3.3,7.3,7.3v151.8c0,4-3.3,7.3-7.3,7.3Z"/>
            <path class="cls-4" d="M168,275.3h-79.2c-4,0-7.3-3.3-7.3-7.3V116.2c0-4,3.3-7.3,7.3-7.3h79.2c4,0,7.3,3.3,7.3,7.3v151.8c0,4-3.3,7.3-7.3,7.3Z"/>
            <path class="cls-25" d="M92,115.7h14.7c1.8,0,3.2,1.4,3.2,3.2h0c0,1.5,1.2,2.7,2.7,2.7h31.6c1.5,0,2.7-1.2,2.7-2.7h0c0-1.8,1.4-3.2,3.2-3.2h14.7c2,0,3.7,1.7,3.7,3.7v145.4c0,2-1.7,3.7-3.7,3.7h-72.8c-2,0-3.7-1.7-3.7-3.7V119.4c0-2,1.7-3.7,3.7-3.7Z"/>
            <path class="cls-12" d="M88.7,108.8h39.6v166.5h-39.6c-4,0-7.3-3.3-7.3-7.3V116.2c0-4,3.3-7.3,7.3-7.3Z"/>
            <path class="cls-25" d="M93,115.7h14.7c1.8,0,3.2,1.4,3.2,3.2h0c0,1.5,1.2,2.7,2.7,2.7h15.8v146.9h-36.4c-2,0-3.7-1.7-3.7-3.7V119.4c0-2,1.7-3.7,3.7-3.7Z"/>
            <path class="cls-27" d="M124.4,118h15.5c.6,0,1.2-.5,1.2-1.2h0c0-.6-.5-1.2-1.2-1.2h-15.5c-.6,0-1.2.5-1.2,1.2h0c0,.6.5,1.2,1.2,1.2Z"/>
            <path class="cls-27" d="M118.7,116.9c0,.6.5,1.2,1.2,1.2s1.2-.5,1.2-1.2-.5-1.2-1.2-1.2-1.2.5-1.2,1.2Z"/>
            <path class="cls-27" d="M115.1,116.9c0,.6.5,1.2,1.2,1.2s1.2-.5,1.2-1.2-.5-1.2-1.2-1.2-1.2.5-1.2,1.2Z"/>
          </g>
          <path class="cls-3" d="M318.2,223.8c.5,1.7,2.3,2.7,4,2.1s2.7-2.3,2.1-4-2.3-2.7-4-2.1c-1.7.5-2.7,2.3-2.1,4Z"/>
        </g>
        <g>
          <path class="cls-17" d="M238.7,253l4.2-4.9c1.5-1.8,4.3-2,6.1-.5h0c1.8,1.5,2,4.3.5,6.1l-4.2,4.9c-1.5,1.8-4.3,2-6.1.5h0c-1.8-1.5-2-4.3-.5-6.1Z"/>
          <path class="cls-7" d="M276.8,233.9l-5.7-19.1c-1.4-4.6-6.2-7.2-10.7-5.8h0l8.1,27.3c.7,2.3,3.1,3.6,5.4,2.9h0c2.3-.7,3.6-3.1,2.9-5.4Z"/>
          <path class="cls-7" d="M247.9,212.8l1.7,5.8c2.1,6.9,9.3,10.9,16.3,8.8h0l-5.5-18.3-12.5,3.7Z"/>
          <path class="cls-17" d="M251.4,247.7l27.1-8h0c1.4,4.6-1.2,9.4-5.8,10.7l-18.9,5.5c-2.3.7-4.7-.6-5.4-2.9h0c-.7-2.3.6-4.7,2.9-5.4Z"/>
          <path class="cls-17" d="M248.9,239.4l27.1-8,2.5,8.3-27.1,8c-2.3.7-4.7-.6-5.4-2.9h0c-.7-2.3.6-4.7,2.9-5.4Z"/>
          <path class="cls-17" d="M246.4,231.1l27.1-8,2.5,8.3-27.1,8c-2.3.7-4.7-.6-5.4-2.9h0c-.7-2.3.6-4.7,2.9-5.4Z"/>
          <path class="cls-17" d="M244,222.9l27.1-8,2.5,8.3-27.1,8c-2.3.7-4.7-.6-5.4-2.9h0c-.7-2.3.6-4.7,2.9-5.4Z"/>
          <rect class="cls-7" x="274.6" y="212.4" width="13.4" height="26.1" transform="translate(-52.6 89.6) rotate(-16.6)"/>
          <rect class="cls-17" x="276.4" y="225.2" width="13.4" height="13.1" transform="translate(-54.3 90.4) rotate(-16.6)"/>
          <rect class="cls-26" x="286.4" y="204" width="19.5" height="34" transform="translate(-50.8 93.7) rotate(-16.6)"/>
          <rect class="cls-15" x="288.8" y="220.7" width="19.5" height="17" transform="translate(-53 94.7) rotate(-16.6)"/>
          <polygon class="cls-1" points="409.8 168.6 290.4 205 300.2 237.6 409.8 204.2 409.8 168.6"/>
          <polygon class="cls-21" points="409.8 186.4 295.3 221.3 300.2 237.6 409.8 204.2 409.8 186.4"/>
          <rect class="cls-13" x="295" y="197.8" width="14.8" height="42.8" transform="translate(-50 95.4) rotate(-16.6)"/>
          <g>
            <path class="cls-7" d="M221.3,233.9l5.7-19.1c1.4-4.6,6.2-7.2,10.7-5.8h0l-8.1,27.3c-.7,2.3-3.1,3.6-5.4,2.9h0c-2.3-.7-3.6-3.1-2.9-5.4Z"/>
            <path class="cls-7" d="M250.2,212.8l-1.7,5.8c-2.1,6.9-9.3,10.9-16.3,8.8h0l5.5-18.3,12.5,3.7Z"/>
            <path class="cls-7" d="M263.1,252.6l-43.6-13h0c-1.4,4.6,1.2,9.4,5.8,10.7l17.2,5.1,18.1,5.4c2.3.7,4.7-.6,5.4-2.9h0c.7-2.3-.6-4.7-2.9-5.4Z"/>
            <path class="cls-7" d="M265.6,244.4l-43.6-13-2.5,8.3,43.6,13c2.3.7,4.7-.6,5.4-2.9h0c.7-2.3-.6-4.7-2.9-5.4Z"/>
            <path class="cls-7" d="M268,236.1l-43.6-13-2.5,8.3,43.6,13c2.3.7,4.7-.6,5.4-2.9h0c.7-2.3-.6-4.7-2.9-5.4Z"/>
            <path class="cls-7" d="M270.5,227.8l-43.6-13-2.5,8.3,43.6,13c2.3.7,4.7-.6,5.4-2.9h0c.7-2.3-.6-4.7-2.9-5.4Z"/>
            <g>
              <rect class="cls-7" x="203.7" y="218.8" width="26.1" height="13.4" transform="translate(-61.2 368.9) rotate(-73.4)"/>
              <rect class="cls-17" x="208.4" y="225" width="13.1" height="13.4" transform="translate(-68.5 371.6) rotate(-73.4)"/>
              <rect class="cls-26" x="184.9" y="211.4" width="34" height="19.5" transform="translate(-67.6 351.5) rotate(-73.4)"/>
              <rect class="cls-15" x="191" y="219.5" width="17" height="19.5" transform="translate(-77.1 355) rotate(-73.4)"/>
              <polygon class="cls-4" points="88.3 168.6 88.3 204.2 197.9 237.6 207.6 205 88.3 168.6"/>
              <polygon class="cls-12" points="88.3 186.4 88.3 204.2 197.9 237.6 202.8 221.3 88.3 186.4"/>
              <rect class="cls-16" x="174.3" y="211.8" width="42.8" height="14.8" transform="translate(-70.3 344.2) rotate(-73.4)"/>
              <g>
                <path class="cls-24" d="M168.4,220.4c-.5,1.7-2.3,2.7-4,2.1-1.7-.5-2.7-2.3-2.1-4s2.3-2.7,4-2.1c1.7.5,2.7,2.3,2.1,4Z"/>
                <path class="cls-24" d="M179.9,223.8c-.5,1.7-2.3,2.7-4,2.1-1.7-.5-2.7-2.3-2.1-4s2.3-2.7,4-2.1c1.7.5,2.7,2.3,2.1,4Z"/>
              </g>
              <path class="cls-7" d="M256.7,214.7l-19.1-5.7c-4.6-1.4-9.4,1.2-10.7,5.8h0l27.3,8.1c2.3.7,4.7-.6,5.4-2.9h0c.7-2.3-.6-4.7-2.9-5.4Z"/>
              <path class="cls-7" d="M223.2,227.4l5.8,1.7c6.9,2.1,14.2-1.9,16.3-8.8h0l-18.3-5.5-3.7,12.5Z"/>
            </g>
            <g>
              <path class="cls-7" d="M263.1,252.6l-6.2-1.9c-2.3-.7-4.7.6-5.4,2.9h0c-.7,2.3.6,4.7,2.9,5.4l6.2,1.9c2.3.7,4.7-.6,5.4-2.9h0c.7-2.3-.6-4.7-2.9-5.4Z"/>
              <path class="cls-7" d="M265.6,244.4l-6.2-1.9c-2.3-.7-4.7.6-5.4,2.9h0c-.7,2.3.6,4.7,2.9,5.4l6.2,1.9c2.3.7,4.7-.6,5.4-2.9h0c.7-2.3-.6-4.7-2.9-5.4Z"/>
              <path class="cls-7" d="M268,236.1l-6.2-1.9c-2.3-.7-4.7.6-5.4,2.9h0c-.7,2.3.6,4.7,2.9,5.4l6.2,1.9c2.3.7,4.7-.6,5.4-2.9h0c.7-2.3-.6-4.7-2.9-5.4Z"/>
              <path class="cls-7" d="M270.5,227.8l-6.2-1.9c-2.3-.7-4.7.6-5.4,2.9h0c-.7,2.3.6,4.7,2.9,5.4l6.2,1.9c2.3.7,4.7-.6,5.4-2.9h0c.7-2.3-.6-4.7-2.9-5.4Z"/>
            </g>
          </g>
          <path class="cls-17" d="M241.3,214.7l19.1-5.7c4.6-1.4,9.4,1.2,10.7,5.8h0l-27.3,8.1c-2.3.7-4.7-.6-5.4-2.9h0c-.7-2.3.6-4.7,2.9-5.4Z"/>
          <path class="cls-17" d="M274.9,227.4l-5.8,1.7c-6.9,2.1-14.2-1.9-16.3-8.8h0l18.3-5.5,3.7,12.5Z"/>
          <g>
            <path class="cls-17" d="M231.2,248.8l4.2-4.9c1.5-1.8,4.3-2,6.1-.5h0c1.8,1.5,2,4.3.5,6.1l-4.2,4.9c-1.5,1.8-4.3,2-6.1.5h0c-1.8-1.5-2-4.3-.5-6.1Z"/>
            <path class="cls-17" d="M223.2,245l4.2-4.9c1.5-1.8,4.3-2,6.1-.5h0c1.8,1.5,2,4.3.5,6.1l-4.2,4.9c-1.5,1.8-4.3,2-6.1.5h0c-1.8-1.5-2-4.3-.5-6.1Z"/>
            <path class="cls-17" d="M215.8,240.3l4.2-4.9c1.5-1.8,4.3-2,6.1-.5h0c1.8,1.5,2,4.3.5,6.1l-4.2,4.9c-1.5,1.8-4.3,2-6.1.5h0c-1.8-1.5-2-4.3-.5-6.1Z"/>
          </g>
          <path class="cls-18" d="M329.9,224.1s-1.9-.4-2.2,1.3c-.3,1.7-.3,5.2,2.2,5,1.4,0,2.1-6.1,0-6.3Z"/>
        </g>
        <g>
          <path class="cls-4" d="M254,60.9c-8.7.1-15.9-6.9-16-15.6-.1-8.7,6.9-15.9,15.6-16,8.7-.1,15.9,6.9,16,15.6.1,8.7-6.9,15.9-15.6,16Z"/>
          <g>
            <path class="cls-6" d="M253.9,51.1c-3.3,0-6-2.6-6.1-5.9,0-3.3,2.6-6,5.9-6.1,3.3,0,6,2.6,6.1,5.9,0,3.3-2.6,6-5.9,6.1Z"/>
            <path class="cls-4" d="M287.4,41.9c0-.3-.2-.5-.5-.5l-7.9-1.7c-.2-1.1-.5-2.1-.9-3.2l5.8-5.5c.2-.1.3-.4.2-.7l-2.9-4.8c-.1-.2-.4-.3-.7-.2l-7.7,2.5c-.7-.8-1.5-1.6-2.3-2.3l2.3-7.7c.1-.2,0-.5-.2-.7l-4.9-2.8c-.2-.1-.5,0-.7.2l-5.4,6c-1-.3-2.1-.6-3.2-.8l-1.9-7.8c0-.3-.2-.5-.5-.5h-5.6c-.3,0-.5.3-.5.6l-1.7,7.9c-1.1.2-2.1.5-3.2.9l-5.5-5.8c-.1-.2-.4-.3-.7-.2l-4.8,2.9c-.2.1-.3.4-.2.7l2.5,7.7c-.8.7-1.6,1.5-2.3,2.3l-7.7-2.3c-.2-.1-.5,0-.7.2l-2.8,4.9c-.1.2,0,.5.2.7l6,5.4c-.3,1-.6,2.1-.8,3.2l-7.8,1.9c-.3,0-.5.2-.5.5v5.6c0,.3.3.5.6.5l7.9,1.7c.2,1.1.5,2.1.9,3.2l-5.8,5.5c-.2.1-.3.4-.2.7l2.9,4.8c.1.2.4.3.7.2l7.7-2.5c.7.8,1.5,1.6,2.3,2.3l-2.3,7.7c-.1.2,0,.5.2.7l4.9,2.8c.2.1.5,0,.7-.2l5.4-6c1,.3,2.1.6,3.2.8l1.9,7.8c0,.3.2.5.5.5h5.6c.3,0,.5-.3.5-.5l1.7-7.9c1.1-.2,2.1-.5,3.2-.9l5.5,5.8c.1.2.4.3.7.2l4.8-2.9c.2-.1.3-.4.2-.7l-2.5-7.7c.8-.7,1.6-1.5,2.3-2.3l7.7,2.3c.2.1.5,0,.7-.2l2.8-4.9c.1-.2,0-.5-.2-.7l-6-5.4c.3-1,.6-2.1.8-3.2l7.8-1.9c.3,0,.5-.2.5-.5v-5.6ZM254.1,66.5c-11.8.1-21.5-9.3-21.6-21.1-.1-11.8,9.3-21.5,21.1-21.6,11.8-.1,21.5,9.3,21.6,21.1.1,11.8-9.3,21.5-21.1,21.6Z"/>
          </g>
        </g>
        <g>
          <path class="cls-12" d="M346.3,48.5c0,1.6-1.3,3-3,3s-3-1.3-3-3,1.3-3,3-3,3,1.3,3,3Z"/>
          <path class="cls-12" d="M343.4,51.5c0,1.6-1.3,3-3,3s-3-1.3-3-3,1.3-3,3-3c1.6,0,3,1.3,3,3Z"/>
          <circle class="cls-12" cx="343.1" cy="54.5" r="3"/>
          <path class="cls-12" d="M350.6,52.5c0,1.6-1.3,3-3,3s-3-1.3-3-3,1.3-3,3-3,3,1.3,3,3Z"/>
          <path class="cls-12" d="M350.9,47.1c0,1.6-1.3,3-3,3s-3-1.3-3-3,1.3-3,3-3,3,1.3,3,3Z"/>
          <path class="cls-12" d="M355.5,47.3c0,1.6-1.3,3-3,3s-3-1.3-3-3,1.3-3,3-3c1.6,0,3,1.3,3,3Z"/>
          <path class="cls-12" d="M359,49.6c0,1.6-1.3,3-3,3s-3-1.3-3-3,1.3-3,3-3,3,1.3,3,3Z"/>
          <path class="cls-12" d="M359.3,53.8c0,1.6-1.3,3-3,3s-3-1.3-3-3,1.3-3,3-3,3,1.3,3,3Z"/>
          <g>
            <path class="cls-13" d="M344.5,71.1s-1.6,11.7-4.7,17c-3,5.3-11.8,2.3-20.4-2.8l1.5-4.2s4.8,2.4,9,3.3c5.5,1.2,5.6-8.1,5.6-8.1,0,0,.1-4.5,1-6.6,2-4.9,7.9-3.4,7.9,1.4Z"/>
            <path class="cls-27" d="M349.5,100.9s2.1,13.3-9.2,10.1c-11-3.1-16.8-4-18.7,25l-5.2-.4s-2.2-28.1,4.6-34,28.6-.7,28.6-.7Z"/>
            <path class="cls-12" d="M316.9,135.6s-1,2-2.4,2.1c-1.3,0-5.1-.1-5.4,1.1s5.1,2.3,5.8,2.5c.7.2,2.2-1.4,2.9-1.6s.9.4,1.5.3c.6,0,2.3-1,2.4-1.3,0-.4-.7-2.9-.7-2.9l-4.1-.2Z"/>
            <g>
              <polygon class="cls-1" points="340.4 99.8 360.7 99.8 361.6 66.6 340.5 66.6 340.4 99.8"/>
              <rect class="cls-27" x="335.7" y="99.8" width="24.1" height="10.4"/>
              <path class="cls-18" d="M350.2,97.8c-.5,2.2-1.6-1-1.7-3.3s1.8-2.4,4.1-2.6c2.3-.2,2.1-.7,2.9,1.5,1.1,2.8-4.7,2.1-5.3,4.4Z"/>
            </g>
            <path class="cls-3" d="M360.7,99.8s5.8,12.2-6,12.3c-11.4.1-17.2.9-10.9,29.2l-5.1,1.1s-9.7-27.1-4.9-34.7c5.9-9.2,27-8,27-8Z"/>
            <path class="cls-12" d="M339.2,142.2s-.4,2.2-1.7,2.6c-1.3.4-4.9,1.3-4.9,2.6,0,1.3,5.5.7,6.3.7s1.7-2,2.3-2.3,1,0,1.5-.1c.5-.2,2-1.6,1.9-2,0-.4-1.5-2.5-1.5-2.5l-3.9,1Z"/>
            <path class="cls-22" d="M342.8,100.9h13.9c.4,0,.8-.4.8-.8h0c0-.5-.4-.9-.8-.9h-13.9c-.4,0-.8.4-.8.8h0c0,.5.4.9.8.9Z"/>
            <path class="cls-22" d="M313.8,100.9h29.3c.8,0,1.4-.6,1.4-1.4v-19.1c0-.8-.6-1.4-1.4-1.4h-29.3c-.8,0-1.4.6-1.4,1.4v19.1c0,.8.6,1.4,1.4,1.4Z"/>
            <path class="cls-14" d="M343.1,79h-16c.8,0,1.4.6,1.4,1.4v19.1c0,.8-.6,1.4-1.4,1.4h16c.8,0,1.4-.6,1.4-1.4v-19.1c0-.8-.6-1.4-1.4-1.4Z"/>
            <path class="cls-22" d="M343.1,79h-1c.8,0,1.4.6,1.4,1.4v19.1c0,.8-.6,1.4-1.4,1.4h1c.8,0,1.4-.6,1.4-1.4v-19.1c0-.8-.6-1.4-1.4-1.4Z"/>
            <path class="cls-13" d="M364.8,68.2s6.5,9.8,7.8,15.8c1.3,6-7.3,9.6-17.1,11.5l-1.7-4.2s5.2-1.4,9-3.5c4.9-2.8-1.2-9.8-1.2-9.8,0,0-2.9-3.5-3.7-5.5-1.8-5.1,3.6-7.7,6.8-4.2Z"/>
            <path class="cls-18" d="M349.6,69h0c-.9,0-1.7-.7-1.7-1.7v-3h3.3v3c0,.9-.7,1.7-1.7,1.7Z"/>
            <circle class="cls-12" cx="355.3" cy="58.1" r="3"/>
            <path class="cls-12" d="M356.8,59.9c0,1.6-1.3,3-3,3s-3-1.3-3-3,1.3-3,3-3c1.6,0,3,1.3,3,3Z"/>
            <path class="cls-18" d="M342.9,54s0,4.7,1.1,8.4c1,3.2,4.6,5,7.6,3.4,1.2-.6,2.2-1.7,2.7-3.7,0,0,2.7-1.2,2.9-3.6.2-2.4-2.4-1.7-2.7-.1l-1.8-6.1h-3.5c0,0-2.8,1.5-2.8,1.5h-3.4Z"/>
            <path class="cls-12" d="M354.3,58.4s-2-.9-2.5-3.4c-.6-2.5-7.1,1.3-10.5-.5-3.4-1.9-2-5.8.7-6.4,0,0-.5,1,.4,1.4.9.5,7.7-5.6,11.3-2.3,0,0,2.2.2,3.3,2.6,1.1,2.5-1,7.2-1,7.2,0,0-1.3,0-1.7,1.5Z"/>
          </g>
        </g>
        <g>
          <g>
            <path class="cls-27" d="M96.4,301.7s.4,2.2,1.7,2.6c1.3.4,3.6,1.3,3.5,2.6s-4.2.7-4.9.7-4.5-.6-4.5-1c0-.4.1-5.5.1-5.5l4,.5Z"/>
            <path class="cls-27" d="M99.4,245.9c3.5,21.9-2.3,56-2.3,56h-5.1s1.3-32.9-.9-48c-2.2-15.1,6.7-19.2,8.3-8Z"/>
            <rect class="cls-27" x="82.7" y="245.8" width="16.7" height="10.4"/>
            <path class="cls-27" d="M84.8,301.7s.4,2.2,1.7,2.6c1.3.4,3.6,1.3,3.5,2.6s-4.2.7-4.9.7-4.5-.6-4.5-1c0-.4.1-5.5.1-5.5l4,.5Z"/>
            <path class="cls-3" d="M90.2,245.9c.5,21.2-4.9,56-4.9,56h-5.1s1.8-26.6-.5-41.6c-1.5-9.9-.6-14.3-.6-14.3,2.7-4.4,10-8.2,11.2,0Z"/>
            <g>
              <path class="cls-22" d="M95.3,217.1s1.6,11.7,4.7,17c3,5.3,11.8,2.3,20.4-2.8l-1.5-4.2s-4.8,2.4-9,3.3c-5.5,1.2-5.6-8.1-5.6-8.1,0,0-.1-4.5-1-6.6-2-4.9-7.9-3.4-7.9,1.4Z"/>
              <g>
                <polygon class="cls-14" points="99.4 245.9 79.1 245.9 78.2 212.7 99.3 212.7 99.4 245.9"/>
                <path class="cls-18" d="M94,212.7v1.6c0,2.1-1.7,3.9-3.9,3.9s-3.9-1.7-3.9-3.9v-1.6h7.8Z"/>
                <path class="cls-18" d="M89.6,243.9c.5,2.2,1.6-1,1.7-3.3s-1.8-2.4-4.1-2.6c-2.3-.2-2.1-.7-2.9,1.5-1.1,2.8,4.7,2.1,5.3,4.4Z"/>
              </g>
              <path class="cls-22" d="M75,214.3s-6.5,9.8-7.8,15.8,7.3,9.6,17.1,11.5l1.7-4.2s-5.2-1.4-9-3.5c-4.9-2.8,1.2-9.8,1.2-9.8,0,0,2.9-3.5,3.7-5.5,1.8-5.1-3.6-7.7-6.8-4.2Z"/>
              <path class="cls-18" d="M90.2,215.1h0c.9,0,1.7-.7,1.7-1.7v-3h-3.3v3c0,.9.7,1.7,1.7,1.7Z"/>
              <path class="cls-18" d="M96.9,200s0,4.7-1.1,8.4c-1,3.2-4.6,5-7.6,3.4-1.2-.6-2.2-1.7-2.7-3.7,0,0-2.7-1.2-2.9-3.6-.2-2.4,2.4-1.7,2.7-.1l1.8-6.1h3.5c0,0,2.8,1.5,2.8,1.5h3.4Z"/>
              <path class="cls-21" d="M85.4,204.5s2-.9,2.5-3.4c.6-2.5,7.1,1.3,10.5-.5,7.7-4.9-7.9-11.4-12.4-7.3,0,0-2.2.2-3.3,2.6-1.1,2.5,1,7.2,1,7.2,0,0,1.3,0,1.7,1.5Z"/>
            </g>
          </g>
          <rect class="cls-6" x="108.2" y="212.2" width="22.4" height="17.2" transform="translate(-123.6 283.3) rotate(-76)"/>
          <path class="cls-18" d="M128.3,220.7s1.4.6,1.1,2.2c-.5,2.7-1,3.7-2.5,3.5-1.5-.2-.7-2.6-.4-3.6.2-1,.4-2.9,1.9-2.1Z"/>
        </g>
        <g>
          <g>
            <path class="cls-27" d="M320.4,301.7s.4,2.2,1.7,2.6c1.3.4,3.6,1.3,3.5,2.6,0,1.3-4.2.7-4.9.7s-4.5-.6-4.5-1c0-.4.1-5.5.1-5.5l4,.5Z"/>
            <path class="cls-27" d="M323.3,245.9c3.5,21.9-2.3,56-2.3,56h-5.1s1.3-32.9-.9-48c-2.2-15.1,6.7-19.2,8.3-8Z"/>
            <rect class="cls-27" x="306.7" y="245.8" width="16.7" height="10.4"/>
            <path class="cls-27" d="M308.7,301.7s.4,2.2,1.7,2.6c1.3.4,3.6,1.3,3.5,2.6,0,1.3-4.2.7-4.9.7s-4.5-.6-4.5-1c0-.4.1-5.5.1-5.5l4,.5Z"/>
            <path class="cls-3" d="M315,245.8c.3,17.8-5.7,56-5.7,56h-5.1s1.8-26.6-.5-41.6c-1.5-9.9-.6-14.3-.6-14.3,2.7-4.4,10.8-8.2,12,0Z"/>
            <g>
              <g>
                <polygon class="cls-4" points="323.3 245.9 303 245.9 302.2 212.7 323.3 212.7 323.3 245.9"/>
                <path class="cls-27" d="M310.3,212.7v1.6c0,2.1,1.7,3.9,3.9,3.9s3.9-1.7,3.9-3.9v-1.6h-7.8Z"/>
              </g>
              <path class="cls-18" d="M314.2,215.1h0c.9,0,1.7-.7,1.7-1.7v-3h-3.3v3c0,.9.7,1.7,1.7,1.7Z"/>
              <path class="cls-18" d="M320.9,200s0,4.7-1.1,8.4c-1,3.2-4.6,5-7.6,3.4-1.2-.6-2.2-1.7-2.7-3.7,0,0-2.7-1.2-2.9-3.6-.2-2.4,2.4-1.7,2.7-.1l1.8-6.1h3.5c0,0,2.8,1.5,2.8,1.5h3.4Z"/>
              <path class="cls-12" d="M309.4,204.5s2-.9,2.5-3.4c.6-2.5,7.1,1.3,10.5-.5,3.4-1.9,2-5.8-.7-6.4,0,0,.5,1-.4,1.4-.9.5-7.7-5.6-11.3-2.3,0,0-2.2.2-3.3,2.6-1.1,2.5,1,7.2,1,7.2,0,0,1.3,0,1.7,1.5Z"/>
            </g>
          </g>
          <path class="cls-12" d="M301.9,212.7s5.3,0,4.9,6.7c-.4,6.8-2.8,13.3-1.2,13.5,1.6.3,9.1-2.6,10.6-2.8,1.4-.2,4.3,1.9,1.2,3.8-3.1,1.8-11,7.3-15.1,7.6-4.1.3-5-5.7-5.1-16-.1-10.4,2.2-12.7,4.8-12.8Z"/>
          <path class="cls-12" d="M323.3,212.7s3.4,5.4,3.9,10.5c.5,5.1-4,2.3-4,2.3v-12.8Z"/>
          <rect class="cls-6" x="316.4" y="219.1" width="13.5" height="17.6"/>
          <rect class="cls-28" x="316.4" y="219.1" width="1.6" height="17.6"/>
        </g>
        <g>
          <g>
            <path class="cls-3" d="M159.4,198s-2.2.7-2.2,3.5c0,2.9,3.1,11.4,2.5,16.5-.6,5,11.8,1.6,11.8,1.6l4.9-3.8s-.9-4.1.5-8.8c2.6-8.5-7.4-17.4-17.6-8.9Z"/>
            <path class="cls-27" d="M160.7,301.7s-.4,2.2-1.7,2.6c-1.3.4-3.6,1.3-3.5,2.6,0,1.3,4.2.7,4.9.7s4.5-.6,4.5-1c0-.4-.1-5.5-.1-5.5l-4,.5Z"/>
            <path class="cls-3" d="M160.3,243.6c-4.8,21.6-.1,58.2-.1,58.2h5.1s-.5-31.3,2.8-50.4c2.6-15-5.4-17.8-7.8-7.9Z"/>
            <rect class="cls-3" x="161.2" y="243.6" width="13.3" height="10.4"/>
            <path class="cls-27" d="M172.4,301.7s-.4,2.2-1.7,2.6c-1.3.4-3.6,1.3-3.5,2.6,0,1.3,4.2.7,4.9.7s4.5-.6,4.5-1c0-.4-.1-5.5-.1-5.5l-4,.5Z"/>
            <path class="cls-3" d="M167.6,243.1c-.2,23.2,4.3,58.8,4.3,58.8h5.1s-1.8-28.8.5-43.9c1.5-9.9-1.4-14.3-1.4-14.3-2.7-4.4-7.3-8.7-8.5-.6Z"/>
            <g>
              <path class="cls-18" d="M163.5,219.7s-4.4,8.5-9.1,12.4c-4.7,4-11.2-.6-18.1-7.7l2-2.7s4.1,3.9,7.8,6.1c4.9,2.8,8.9-5.3,8.9-5.3,0,0,1.7-4.2,3.2-5.8,3.6-3.9,7.6-.5,5.4,3.1Z"/>
              <path class="cls-21" d="M160.3,243.6s17.8,0,15.8,0c-1.6-10.6.5-15.5,1-18.4.9-5,.4-7.7.4-7.7,0-1.9-2.5-2.8-4.4-2.8h-12c.5,4.2-3.2,10.1-.7,13.5,2.7,3.8,0,15.3,0,15.3Z"/>
              <path class="cls-18" d="M177.9,217.7s2.9,9.1,2.4,15.2c-.5,6.1-8.3,7.5-18.2,7.4l-.6-3.3s5.6-.1,9.8-1.3c5.5-1.5,2.5-10.1,2.5-10.1,0,0-1.8-4.1-1.9-6.4-.2-5.3,5-5.8,6-1.6Z"/>
            </g>
            <path class="cls-18" d="M167,217.2h0c-.9,0-1.7-.7-1.7-1.7v-3h3.3v3c0,.9-.7,1.7-1.7,1.7Z"/>
            <path class="cls-18" d="M156.3,241.7c-1.1,2-1.2-1.4-.7-3.6s2.4-1.8,4.6-1.3c2.2.5,2.2,0,2.4,2.2.3,3-5.1.6-6.3,2.7Z"/>
            <path class="cls-18" d="M173.1,205.2c-1,.3-1.3,1.1-1.4,1.3,0,0,0,0,0,0-7.9,1.3-11.5-4.5-11.5-4.5,0,0,0,4.7,1.1,8.4,1,3.2,4.6,5,7.6,3.4,1.2-.6,2.2-1.7,2.7-3.7,0,0,2.7-1.2,2.9-3.6,0-1.3-.6-1.7-1.3-1.5Z"/>
            <path class="cls-1" d="M150.5,236.3l-15.3.9c-.5,0-1-.4-1-.9l-1.2-20.5c0-.5.4-1,.9-1l15.3-.9c.5,0,1,.4,1,.9l1.2,20.5c0,.5-.4,1-.9,1Z"/>
            <path class="cls-6" d="M148.9,235l-12.3.7c-.5,0-1-.4-1-.9l-1-18.2c0-.5.4-1,.9-1l12.3-.7c.5,0,1,.4,1,.9l1,18.2c0,.5-.4,1-.9,1Z"/>
            <rect class="cls-27" x="138.5" y="213.7" width="6.2" height="2.3" transform="translate(-12.1 8.5) rotate(-3.3)"/>
            <rect class="cls-3" x="139.7" y="212.9" width="3.4" height="1.5" transform="translate(-12.1 8.5) rotate(-3.3)"/>
          </g>
          <path class="cls-18" d="M134.2,224.3s-1.6.3-1.6,1.9c0,2.8.3,3.8,2,4,1.6.2,1.2-2.4,1.2-3.4,0-1,0-2.9-1.6-2.5Z"/>
        </g>
        <g>
          <g>
            <rect class="cls-1" x="391.5" y="76.1" width="5.3" height="11.3"/>
            <rect class="cls-1" x="400.3" y="70.8" width="5.3" height="16.6"/>
            <rect class="cls-1" x="410.2" y="66.6" width="5.3" height="20.9"/>
            <path class="cls-1" d="M415.3,60l1.5-8.8-8.8,2,2.7,2.6-7.7,8-3.8-3.4-10.2,10.5c-.4.4-.4,1.2,0,1.6h0c.4.4,1.2.4,1.6,0l8.7-8.9,3.8,3.4,9.2-9.5,2.9,2.7Z"/>
          </g>
          <rect class="cls-1" x="386.1" y="87.4" width="34.3" height="2.5"/>
        </g>
        <path class="cls-22" d="M293,154h0c-1.3-1.3-3.5-1.3-4.8,0l-26.7,26.7-10.9-10.9c-1.3-1.3-3.5-1.3-4.8,0h0c-1.3,1.3-1.3,3.5,0,4.8l10.9,10.9,4.8,4.8,4.8-4.8h0l26.7-26.7c1.3-1.3,1.3-3.5,0-4.8Z"/>
        <g>
          <g>
            <path class="cls-8" d="M73.4,121.1s-.8-.8-1.9-2.2"/>
            <path class="cls-9" d="M68.1,114.1c-5.4-8.8-11.6-25.2-1.1-45,22.2-41.7,73.6-33.6,90.2-9.7,31.2,44.8,59.6,84,103.3,57.2"/>
            <path class="cls-8" d="M263,114.9c.8-.5,1.6-1.1,2.4-1.7"/>
          </g>
          <g>
            <polygon class="cls-23" points="277.3 110.5 297.9 85.5 258.5 100.2 277.3 110.5"/>
            <polygon class="cls-19" points="266.3 104.5 268 112.9 268.6 105.7 297.9 85.5 266.3 104.5"/>
            <polygon class="cls-2" points="268 112.9 273.2 108.2 268.6 105.7 268 112.9"/>
          </g>
        </g>
        <g>
          <path class="cls-10" d="M411.6,141.2s68.8-20.9,52.8-72.2c-20.3-65.4-96-12.1-139.5-40.7"/>
          <g>
            <polygon class="cls-23" points="315.7 27.8 295.1 2.8 334.5 17.5 315.7 27.8"/>
            <polygon class="cls-19" points="326.7 21.8 324.9 30.2 324.4 23.1 295.1 2.8 326.7 21.8"/>
            <polygon class="cls-2" points="324.9 30.2 319.8 25.5 324.4 23.1 324.9 30.2"/>
          </g>
        </g>
        <path class="cls-6" d="M94.3,269.6c-2-2-4.8-4.8-8.4-8-3.6-3.2-7.7-6.9-12.5-10.6-4.7-3.7-9.9-7.5-15.3-10.9-2.7-1.7-5.5-3.3-8.4-4.7-2.8-1.4-5.8-2.5-8.6-3.6-2.8-1-5.6-1.9-8.3-2.6-2.7-.7-5.2-1.3-7.6-1.7-2.4-.4-4.6-.7-6.5-.7-2-.1-3.7,0-5.1,0-.2,0-.3-.1-.5-.4h0c.2.5.4.7.5.7,1.4,0,3.1,0,5,.2,1.9.2,4.1.6,6.4,1,2.3.5,4.8,1.1,7.4,1.9,2.6.8,5.3,1.8,8.1,2.8,2.8,1.1,5.6,2.2,8.4,3.6,2.8,1.4,5.5,3,8.2,4.7,5.4,3.3,10.6,7,15.3,10.7,4.7,3.6,9.1,7.1,12.7,10.2,3.6,3.1,6.7,5.7,8.8,7.5,2.1,1.9,3.3,2.9,3.3,2.9,0,0-1.1-1.2-3.1-3.1Z"/>
      </g>
      <g id="DESIGNED_BY_FREEPIK" class="cls-20">
        <g>
          <g>
            <g>
              <path class="cls-5" d="M248.6,344.8c-.4.4-.8.9-1,1.4l-.4-.2c0-.3-.3-.5-.6-.4-.3,0-.5.3-.5.6,0,.3.3.5.6.5,0,0,.1,0,.2,0l.4.2c-.2.5-.4,1.1-.5,1.6h.7c.2-1.1.8-2.2,1.7-3.2l-.5-.5Z"/>
              <path class="cls-5" d="M253.8,342.6c-.2,0-.3,0-.5,0v-.6c.1-.1.2-.4.2-.6,0-.4-.4-.6-.8-.6-.4,0-.6.4-.6.8,0,.2.2.4.4.5v.6c-.6.1-1.3.3-1.9.6l.3.6c.9-.4,1.8-.6,2.8-.6s.9,0,1.4.1l.2-.7c-.5-.1-1-.2-1.5-.2Z"/>
              <path class="cls-5" d="M260,345c.3,0,.5-.3.5-.6,0-.3-.3-.5-.6-.5-.3,0-.5.3-.5.6l-.4.3c-.4-.4-.8-.8-1.3-1.1l-.4.6c1.1.7,1.9,1.6,2.4,2.8l.7-.3c-.2-.5-.5-1-.9-1.5l.4-.3c0,0,.1,0,.2,0Z"/>
              <path class="cls-5" d="M253.3,352.2c-.4,0-.7,0-1.1,0-.8,0-1.6,0-2.3-.2-.4,0-.8-.1-1.2-.3,1,1.8,2.9,3,5.1,3s5-1.8,5.6-4.3c-.6.4-1.4.8-2.3,1.1-1.1.4-2.4.6-3.8.7Z"/>
              <path class="cls-5" d="M253.8,344c-3.2,0-5.8,2.5-5.8,5.6s0,.8.1,1.2c.6.5,2.6.8,5.1.7,2.7-.2,5-.9,6.3-2,0-.2,0-.4,0-.5-.4-2.8-2.8-4.9-5.7-4.9ZM251.7,350.2c-1,0-1.7-.8-1.7-1.7s.8-1.8,1.7-1.8,1.8.8,1.8,1.8-.8,1.7-1.8,1.7ZM256.2,349.3c-.7,0-1.3-.6-1.3-1.3s.6-1.3,1.3-1.3,1.3.6,1.3,1.3-.6,1.3-1.3,1.3Z"/>
            </g>
            <path class="cls-5" d="M268.9,345.8c-.3-.1-.8-.3-1.3-.2-.5,0-.8.3-.8,1v.8h2.1v1.6h-2.1v5.2h-1.8v-5.2h-1.3v-1.6h1.3v-.8c0-1.6.8-2.6,2.4-2.6s1.1.1,1.5.3v1.6h0Z"/>
            <path class="cls-5" d="M273.4,348.9c-.2,0-.3,0-.5,0-.8,0-1.4.5-1.4,1.5v3.7h-1.8v-6.8h1.8v.7c.4-.6,1.1-.9,1.9-.9s.8.1,1,.3l-1,1.5Z"/>
            <path class="cls-5" d="M280.6,350.7c0,.2,0,.5,0,.6h-4.8c.2,1,.9,1.4,1.7,1.4s1.2-.2,1.7-.7l1.1,1.2c-.8.7-1.8,1-2.9,1-2.1,0-3.5-1.4-3.5-3.6s1.4-3.6,3.4-3.6c2,0,3.3,1.5,3.3,3.6ZM275.8,350.1h3c-.2-.9-.7-1.4-1.5-1.4s-1.4.5-1.5,1.4Z"/>
            <path class="cls-5" d="M287.9,350.7c0,.2,0,.5,0,.6h-4.8c.2,1,.9,1.4,1.7,1.4s1.2-.2,1.7-.7l1.1,1.2c-.8.7-1.7,1-2.9,1-2.1,0-3.5-1.4-3.5-3.6s1.4-3.6,3.4-3.6c2,0,3.3,1.5,3.3,3.6ZM283,350.1h3c-.2-.9-.7-1.4-1.5-1.4s-1.4.5-1.5,1.4Z"/>
            <path class="cls-5" d="M295.8,350.7c0,2-1.4,3.6-3.3,3.6s-1.6-.4-2-.9v3.5h-1.8v-9.6h1.8v.8c.4-.6,1.1-.9,2-.9,1.9,0,3.3,1.5,3.3,3.6ZM290.4,350.7c0,1.1.7,1.9,1.7,1.9s1.8-.8,1.8-1.9-.7-1.9-1.8-1.9-1.7.8-1.7,1.9Z"/>
            <path class="cls-5" d="M298.7,345.1c0,.7-.5,1.2-1.2,1.2s-1.2-.5-1.2-1.2.5-1.2,1.2-1.2c.7,0,1.2.5,1.2,1.2ZM298.5,354.1h-1.8v-6.8h1.8v6.8Z"/>
            <path class="cls-5" d="M301.5,349.7l2.6-2.4h2.2l-3.3,3.2,3.3,3.6h-2.2l-2.6-2.7v2.7h-1.8v-10.1h1.8v5.7h0Z"/>
          </g>
          <g>
            <path class="cls-5" d="M177,354v-1c-.5.7-1.3,1.2-2.3,1.2-1.7,0-3-1.3-3-3.5s1.2-3.5,3-3.5,1.7.4,2.3,1.2v-3.6h1v9.2h-1ZM177,352.2v-3c-.4-.6-1.2-1.1-2-1.1-1.3,0-2.1,1.1-2.1,2.6s.8,2.6,2.1,2.6c.8,0,1.6-.5,2-1.1Z"/>
            <path class="cls-5" d="M179.4,350.7c0-1.9,1.4-3.5,3.3-3.5s3.2,1.6,3.2,3.6v.3h-5.4c0,1.3,1,2.3,2.4,2.3s1.5-.3,2.1-.8l.5.7c-.7.7-1.6,1-2.7,1-2,0-3.4-1.4-3.4-3.5ZM182.7,348c-1.4,0-2.1,1.2-2.2,2.2h4.4c0-1-.7-2.2-2.2-2.2Z"/>
            <path class="cls-5" d="M186.6,353.2l.5-.7c.4.5,1.3,1,2.2,1s1.6-.5,1.6-1.1c0-1.6-4.1-.6-4.1-3.1s.9-1.9,2.5-1.9,1.9.4,2.5,1l-.5.7c-.4-.5-1.1-.8-2-.8s-1.5.5-1.5,1.1c0,1.5,4.1.5,4.1,3.1s-.9,2-2.6,2c-1.1,0-2-.3-2.7-1.1Z"/>
            <path class="cls-5" d="M193.1,345.7c0-.4.3-.7.7-.7s.7.3.7.7-.3.7-.7.7c-.4,0-.7-.3-.7-.7ZM193.3,354v-6.7h1v6.7h-1Z"/>
            <path class="cls-5" d="M196.1,355.8l.5-.8c.6.7,1.2.9,2.2.9s2.1-.5,2.1-2v-1c-.5.7-1.3,1.2-2.2,1.2-1.7,0-3-1.3-3-3.5s1.2-3.5,3-3.5,1.7.4,2.2,1.2v-1h1v6.5c0,2.2-1.6,2.9-3.2,2.9-1.1,0-1.9-.2-2.7-1ZM200.9,352.1v-2.9c-.4-.6-1.2-1.1-2-1.1-1.3,0-2.1,1.1-2.1,2.6s.8,2.5,2.1,2.5,1.6-.5,2-1.1Z"/>
            <path class="cls-5" d="M208.2,354v-4.4c0-1.2-.6-1.6-1.5-1.6s-1.6.5-2,1v4.9h-1v-6.7h1v1c.5-.6,1.4-1.1,2.4-1.1s2.1.7,2.1,2.2v4.7h-1Z"/>
            <path class="cls-5" d="M210.6,350.7c0-1.9,1.4-3.5,3.3-3.5s3.2,1.6,3.2,3.6v.3h-5.4c0,1.3,1,2.3,2.4,2.3s1.5-.3,2.1-.8l.5.7c-.7.7-1.6,1-2.7,1-2,0-3.4-1.4-3.4-3.5ZM213.9,348c-1.4,0-2.1,1.2-2.2,2.2h4.4c0-1-.7-2.2-2.2-2.2Z"/>
            <path class="cls-5" d="M223.3,354v-1c-.5.7-1.3,1.2-2.3,1.2-1.7,0-3-1.3-3-3.5s1.2-3.5,3-3.5,1.7.4,2.3,1.2v-3.6h1v9.2h-1ZM223.3,352.2v-3c-.4-.6-1.2-1.1-2-1.1-1.3,0-2.1,1.1-2.1,2.6s.8,2.6,2.1,2.6c.8,0,1.6-.5,2-1.1Z"/>
            <path class="cls-5" d="M229.3,354v-9.2h1v3.6c.5-.7,1.3-1.2,2.3-1.2,1.7,0,3,1.4,3,3.5s-1.2,3.5-3,3.5-1.8-.5-2.3-1.2v1h-1ZM232.3,353.3c1.4,0,2.2-1.1,2.2-2.6s-.8-2.6-2.2-2.6-1.6.5-2,1.1v3c.4.6,1.2,1.1,2,1.1Z"/>
            <path class="cls-5" d="M236.7,355.7c.2,0,.4.1.6.1.5,0,.8-.2,1-.7l.4-1-2.8-6.8h1.1l2.2,5.5,2.2-5.5h1.1l-3.4,8.1c-.4,1-1.1,1.3-2,1.4-.2,0-.6,0-.8,0l.2-.9Z"/>
          </g>
        </g>
      </g>
    </g>
  </g>
</svg>
