<?xml version="1.0" encoding="UTF-8"?>
<svg xmlns="http://www.w3.org/2000/svg" version="1.1" viewBox="0 0 5000 5000">
  <defs>
    <style>
      .cls-1 {
        fill: #0a383c;
      }

      .cls-2 {
        fill: #fff;
      }

      .cls-3 {
        stroke: #000;
        stroke-linecap: round;
        stroke-linejoin: round;
        stroke-width: 81.3px;
      }

      .cls-3, .cls-4 {
        fill: none;
      }

      .cls-5 {
        fill: #436868;
      }

      .cls-6 {
        isolation: isolate;
      }

      .cls-7 {
        fill: #111515;
      }

      .cls-4 {
        stroke: #fff;
        stroke-miterlimit: 22.9;
        stroke-width: 1px;
      }

      .cls-8 {
        display: none;
      }

      .cls-9 {
        fill-rule: evenodd;
      }

      .cls-10 {
        fill: #b5d5d6;
      }

      .cls-10, .cls-11 {
        mix-blend-mode: multiply;
      }

      .cls-11 {
        fill: #c9e9eb;
      }

      .cls-12 {
        opacity: .7;
      }
    </style>
  </defs>
  <!-- Generator: Adobe Illustrator 28.6.0, SVG Export Plug-In . SVG Version: 1.2.0 Build 709)  -->
  <g class="cls-6">
    <g id="Layer_1" class="cls-8">
      <g>
        <polygon class="cls-5" points="1253.5 3042.2 1192.9 2943.4 1496.6 2757 1557.3 2855.9 1253.5 3042.2"/>
        <g>
          <g>
            <path class="cls-5" d="M2567.6,2187.1c-188.9-304.4-588.9-398.1-893.2-209.1-304.5,188.9-398.1,588.8-209.3,893.2,188.9,304.4,588.9,398.1,893.3,209.2,304.3-188.9,398-588.8,209.2-893.2ZM2299.7,2985.7c-252.2,156.5-583.5,78.9-740-173.3-156.4-252.2-78.9-583.5,173.3-739.9,252.2-156.5,583.5-79,740,173.3,156.5,252.2,78.9,583.5-173.2,740Z"/>
            <path class="cls-11" d="M1733,2072.5c-252.2,156.4-329.7,487.8-173.3,739.9l913.2-566.7c-156.5-252.2-487.8-329.7-740-173.3Z"/>
            <path class="cls-10" d="M2473,2245.8l-913.2,566.7c156.5,252.2,487.8,329.7,740,173.3,252.2-156.4,329.7-487.7,173.2-740Z"/>
          </g>
          <path class="cls-2" d="M1619.3,2430.9c-18.5-3.1-31.6-20.2-29.6-39.1.7-6.7,18.9-164.5,160.2-252.5,196.2-122.3,382.5-42.2,390.4-38.8,18,8,26.2,29.2,18.1,47.2-8,18.1-29,26.3-47.1,18.2-6.4-2.8-160.4-67.7-323.6,34.1-111.9,69.7-126.8,198-126.9,199.3-2.1,19.7-19.7,33.9-39.3,31.8-.8,0-1.5-.2-2.2-.3Z"/>
          <path class="cls-1" d="M1921.4,3074c-302.1-50.6-506.7-337.5-456.1-639.6,50.6-302.1,337.5-506.8,639.6-456.2,302.1,50.6,506.8,337.5,456.2,639.6-50.5,302.1-337.6,506.7-639.6,456.2ZM2100.5,2003.9c-288-48.2-561.5,146.9-609.7,434.8-48.2,288,146.9,561.5,434.9,609.7,288,48.2,561.4-146.9,609.6-434.9,48.2-287.9-146.8-561.4-434.8-609.7Z"/>
        </g>
        <path class="cls-7" d="M431.7,3482c-45-73.3-26.5-166.4,41.2-208l614.1-376.6c67.7-41.6,159.1-15.8,204.1,57.5h0c45,73.3,26.5,166.4-41.2,208l-614.1,376.6c-67.8,41.5-159.1,15.8-204.1-57.6h0Z"/>
      </g>
    </g>
    <g id="Layer_2">
      <g class="cls-12">
        <polygon class="cls-4" points="-851.6 -331 6175 -331 6175 6695.6 -851.6 6695.6 -851.6 -331 -851.6 -331"/>
        <path class="cls-3" d="M3788.5,4578.5l1.8,115.1c1.2,77.2-63.3,140.5-140.5,140.5H508.9c-77.3,0-140.5-63.2-140.5-140.5V645.4c0-77.3,63.2-140.5,140.5-140.5h144.8M2390.9,1505.9h-1046.4M2556.4,1117.6h-1377.5M2635.7,729.4h-1536.1M4206.5,1385.3l16.7,2063.3M4014.3,4402.8H969.9c-77.3,0-140.5-63.2-140.5-140.5V214.1c0-77.3,63.2-140.5,140.5-140.5h1936.3M2902.7,1254.8l17.8-1166.8.2-13,686.6,700.6,591.4,603.4-1160.6,12c-37.5.4-70-12.9-96.4-39.5-26.5-26.6-39.6-59.1-39-96.6h0Z"/>
        <path class="cls-9" d="M3705,3749.9c-409.1,329.9-1011.8,308-1396.1-68.5-414-405.7-420.3-1073-14.7-1487.2,405.8-414.1,1073.1-420.6,1487.2-14.7,384.3,376.5,418.2,978.6,96.6,1393.8l150.9,147.7c93-28.5,197.9-7,273,64.9l587.7,574.9c107.4,105.8,109.6,277.6,3.9,384.8-105.7,107.4-277.6,109.6-384.9,3.9l-588.8-573.7c-73.7-73.9-100.4-182.2-67.4-281.5l-147.3-144.4h0ZM3579.7,2385.3c-300.5-293.8-784.7-289.7-1079.7,10.8-293.8,300.3-289.5,784.7,10.8,1079.5,300.5,294.9,784.9,289.6,1079.6-10.8,294.8-300.3,289.5-784.7-10.8-1079.5h0ZM4667.6,4411.4c67.8-2.1,124.5,51.1,126.7,118.9,2.1,67.8-51.1,124.5-118.9,126.7-67.8,2.2-124.5-51.1-126.7-118.9-2.2-67.8,51.1-124.5,118.9-126.7h0Z"/>
        <path class="cls-9" d="M3444,2542.9c-39.9-39.9-105.3-39.9-145.2,0l-265.2,265.2-265.2-265.2c-39.9-39.9-105.3-39.9-145.2,0s-39.9,105.2,0,145.2l265.2,265.2-265.2,265.2c-39.9,39.9-39.9,105.3,0,145.2,39.9,39.9,105.2,39.9,145.2,0l265.2-265.2,265.2,265.2c39.9,39.9,105.2,39.9,145.2,0,39.9-39.9,39.9-105.3,0-145.2l-265.2-265.2,265.2-265.2c39.9-39.9,39.9-105.3,0-145.2h0Z"/>
      </g>
    </g>
  </g>
</svg>
