<?xml version="1.0" encoding="UTF-8"?>
<svg xmlns="http://www.w3.org/2000/svg" version="1.1" viewBox="0 0 48 48">
  <defs>
    <style>
      .cls-1 {
        fill: #7b7b7b;
      }
    </style>
  </defs>
  <!-- Generator: Adobe Illustrator 28.6.0, SVG Export Plug-In . SVG Version: 1.2.0 Build 709)  -->
  <g>
    <g id="Layer_1">
      <g id="Layer_1-2" data-name="Layer_1">
        <path class="cls-1" d="M24,25.1c-3,0-5.5-2.4-5.5-5.5s2.4-5.5,5.5-5.5,5.5,2.4,5.5,5.5-2.4,5.5-5.5,5.5ZM23.5,30.5c-6.3,0-11.5,5.1-11.5,11.5v2.8c3.5,2,7.6,3.2,12,3.2s7.6-1,10.9-2.6v-3.4c0-6.3-5.1-11.5-11.5-11.5h0ZM24,0C10.8,0,0,10.8,0,24s2.9,13.2,7.7,17.6c.2-6.5,4.3-12.1,10.1-14.3-2.2-1.8-3.6-4.5-3.6-7.6,0-5.4,4.4-9.8,9.8-9.8s9.8,4.4,9.8,9.8-1.6,6.1-4,7.9c5.6,2.5,9.5,8,9.5,14.5v.5c5.3-4.4,8.7-11.1,8.7-18.5C48,10.8,37.2,0,24,0Z"/>
      </g>
    </g>
  </g>
</svg>
