<?xml version="1.0" encoding="UTF-8"?>
<svg xmlns="http://www.w3.org/2000/svg" version="1.1" viewBox="0 0 512 512">
  <defs>
    <style>
      .cls-1 {
        fill: #7b7b7b;
      }
    </style>
  </defs>
  <!-- Generator: Adobe Illustrator 28.6.0, SVG Export Plug-In . SVG Version: 1.2.0 Build 709)  -->
  <g>
    <g id="Layer_1">
      <g id="Layer_1-2" data-name="Layer_1">
        <g id="Layer_2">
          <path class="cls-1" d="M484.3,233.9c-8.5,0-15.7-6.1-17.1-14.4-2.4-14.1-6.2-27.9-11.4-41.2-3.5-9,.9-19,9.9-22.5s19,.9,22.5,9.9c6,15.5,10.5,31.5,13.3,47.9,1.6,9.5-4.7,18.4-14.2,20.1h0c-1,.2-2,.3-3,.3h0ZM451,148.2c-5.9,0-11.4-3-14.6-8-7.7-12-16.7-23.2-26.6-33.5-6.7-6.8-6.7-17.8.1-24.6,6.8-6.7,17.8-6.7,24.6,0l.2.2c11.6,11.9,21.9,24.9,30.9,38.9,5.2,8.1,2.9,18.8-5.2,24-2.8,1.8-6.1,2.8-9.4,2.8h0ZM386.8,82.1c-3.5,0-6.9-1-9.8-3-11.8-8-24.4-14.9-37.5-20.5-9.1-3.1-13.9-13-10.7-22.1,3.1-9.1,13-13.9,22.1-10.7.7.3,1.5.6,2.2.9,15.3,6.5,29.9,14.4,43.5,23.8,7.9,5.4,9.9,16.2,4.5,24.1-3.2,4.7-8.6,7.6-14.3,7.6h0ZM302.1,46.3c-1.2,0-2.3,0-3.4-.3-14-2.8-28.3-4.2-42.6-4.2s-17.4-7.8-17.4-17.4,7.8-17.4,17.4-17.4c16.6,0,33.1,1.6,49.4,4.9,9.4,1.9,15.5,11.1,13.6,20.5-1.6,8.1-8.7,13.9-17,13.9h0Z"/>
          <path class="cls-1" d="M256.1,505c-137.5,0-249-111.5-249-249S118.5,7,256.1,7s17.4,7.8,17.4,17.4-7.8,17.4-17.4,17.4c-118.3,0-214.3,95.8-214.3,214.2s95.8,214.3,214.2,214.3,202.2-83.3,213.3-192.8c1.2-9.5,9.9-16.2,19.5-15,9.1,1.2,15.7,9.3,15.1,18.4-12.3,127.4-119.6,224.5-247.7,224.1h-.1Z"/>
          <path class="cls-1" d="M256.1,70.7c-102.3,0-185.3,83-185.3,185.3s83,185.3,185.3,185.3,185.3-83,185.3-185.3-83-185.3-185.3-185.3h0ZM362.6,335.9c-5.8,7.7-16.6,9.2-24.3,3.5h0l-92.7-69.5c-4.4-3.3-7-8.4-6.9-13.9v-115.8c0-9.6,7.8-17.4,17.4-17.4s17.4,7.8,17.4,17.4v107l85.7,64.4c7.7,5.8,9.2,16.6,3.5,24.3h-.1Z"/>
        </g>
      </g>
    </g>
  </g>
</svg>
