<?xml version="1.0" encoding="UTF-8"?>
<svg xmlns="http://www.w3.org/2000/svg" version="1.1" viewBox="0 0 512 512">
  <defs>
    <style>
      .cls-1 {
        fill: #7b7b7b;
      }
    </style>
  </defs>
  <!-- Generator: Adobe Illustrator 28.6.0, SVG Export Plug-In . SVG Version: 1.2.0 Build 709)  -->
  <g>
    <g id="Layer_1">
      <g id="Layer_1-2" data-name="Layer_1">
        <path class="cls-1" d="M451.7,23h-46.6v46.6c0,9.3-7.8,15.5-15.5,15.5s-15.5-6.2-15.5-15.5V23H125.5v46.6c0,9.3-7.8,15.5-15.5,15.5s-15.5-6.2-15.5-15.5V23h-46.6c-23.3,0-40.4,20.2-40.4,46.6v55.9h497.1v-55.9c0-26.4-28-46.6-52.8-46.6h-.1ZM7.4,158.1v284.3c0,28,17.1,46.6,41.9,46.6h403.9c24.9,0,52.8-20.2,52.8-46.6V158.1H7.4ZM145.7,419.1h-37.3c-6.2,0-12.4-4.7-12.4-12.4v-38.8c0-6.2,4.7-12.4,12.4-12.4h38.8c6.2,0,12.4,4.7,12.4,12.4v38.8c-1.6,7.8-6.2,12.4-14,12.4h.1ZM145.7,279.3h-37.3c-6.2,0-12.4-4.7-12.4-12.4v-38.8c0-6.2,4.7-12.4,12.4-12.4h38.8c6.2,0,12.4,4.7,12.4,12.4v38.8c-1.6,7.8-6.2,12.4-14,12.4h.1ZM270,419.1h-38.8c-6.2,0-12.4-4.7-12.4-12.4v-38.8c0-6.2,4.7-12.4,12.4-12.4h38.8c6.2,0,12.4,4.7,12.4,12.4v38.8c0,7.8-4.7,12.4-12.4,12.4ZM270,279.3h-38.8c-6.2,0-12.4-4.7-12.4-12.4v-38.8c0-6.2,4.7-12.4,12.4-12.4h38.8c6.2,0,12.4,4.7,12.4,12.4v38.8c0,7.8-4.7,12.4-12.4,12.4ZM394.2,419.1h-38.8c-6.2,0-12.4-4.7-12.4-12.4v-38.8c0-6.2,4.7-12.4,12.4-12.4h38.8c6.2,0,12.4,4.7,12.4,12.4v38.8c0,7.8-4.7,12.4-12.4,12.4ZM394.2,279.3h-38.8c-6.2,0-12.4-4.7-12.4-12.4v-38.8c0-6.2,4.7-12.4,12.4-12.4h38.8c6.2,0,12.4,4.7,12.4,12.4v38.8c0,7.8-4.7,12.4-12.4,12.4Z"/>
      </g>
    </g>
  </g>
</svg>
