<?xml version="1.0" encoding="UTF-8"?>
<svg xmlns="http://www.w3.org/2000/svg" version="1.1" viewBox="0 0 512 512">
  <defs>
    <style>
      .cls-1 {
        fill: #171717;
      }
    </style>
  </defs>
  <!-- Generator: Adobe Illustrator 28.6.0, SVG Export Plug-In . SVG Version: 1.2.0 Build 709)  -->
  <g>
    <g id="Layer_1">
      <path class="cls-1" d="M437,75C388.7,26.6,324.4,0,256,0S123.3,26.6,75,75,0,187.6,0,256s26.6,132.7,75,181,112.6,75,181,75,132.7-26.6,181-75,75-112.6,75-181-26.6-132.7-75-181ZM366.7,331.4c9.8,9.8,9.8,25.6,0,35.4s-11.3,7.3-17.7,7.3-12.8-2.4-17.7-7.3l-75.4-75.4-75.4,75.4c-4.9,4.9-11.3,7.3-17.7,7.3s-12.8-2.4-17.7-7.3c-9.8-9.8-9.8-25.6,0-35.4l75.4-75.4-75.4-75.4c-9.8-9.8-9.8-25.6,0-35.4s25.6-9.8,35.4,0l75.4,75.4,75.4-75.4c9.8-9.8,25.6-9.8,35.4,0,9.8,9.8,9.8,25.6,0,35.4l-75.4,75.4,75.4,75.4Z"/>
    </g>
  </g>
</svg>
