<?xml version="1.0" encoding="UTF-8"?>
<svg xmlns="http://www.w3.org/2000/svg" version="1.1" viewBox="0 0 512 512">
  <defs>
    <style>
      .cls-1 {
        fill: #7b7b7b;
      }
    </style>
  </defs>
  <!-- Generator: Adobe Illustrator 28.6.0, SVG Export Plug-In . SVG Version: 1.2.0 Build 709)  -->
  <g>
    <g id="Layer_1">
      <g id="Capa_1">
        <g>
          <path class="cls-1" d="M469.3,106.7h-106.7v-21.3c0-23.5-19.1-42.7-42.7-42.7h-128c-23.5,0-42.7,19.1-42.7,42.7v21.3H42.7C19.2,106.7,0,125.8,0,149.4v64c0,23.5,19.1,42.7,42.7,42.7h170.7v-10.7c0-5.9,4.8-10.7,10.7-10.7h64c5.9,0,10.7,4.8,10.7,10.7v10.7h170.7c23.5,0,42.7-19.1,42.7-42.7v-64c0-23.5-19.1-42.7-42.7-42.7h-.2ZM320,106.7h-128v-21.3h128v21.3Z"/>
          <path class="cls-1" d="M506.1,267.5c-3.6-1.8-8-1.4-11.2,1.1-7.6,5.7-16.4,8.8-25.6,8.8h-170.7v32c0,5.9-4.8,10.7-10.7,10.7h-64c-5.9,0-10.7-4.8-10.7-10.7v-32H42.7c-9.1,0-18-3-25.6-8.8-3.2-2.5-7.6-2.9-11.2-1.1C2.3,269.3,0,273,0,277.1v149.6C0,450.2,19.1,469.4,42.7,469.4h426.7c23.5,0,42.7-19.1,42.7-42.7v-149.6c0-4.1-2.3-7.8-5.9-9.6h-.1Z"/>
        </g>
      </g>
    </g>
  </g>
</svg>
