<?xml version="1.0" encoding="UTF-8"?>
<svg xmlns="http://www.w3.org/2000/svg" version="1.1" viewBox="0 0 512 512">
  <defs>
    <style>
      .cls-1 {
        fill: #7b7b7b;
      }
    </style>
  </defs>
  <!-- Generator: Adobe Illustrator 28.6.0, SVG Export Plug-In . SVG Version: 1.2.0 Build 709)  -->
  <g>
    <g id="Layer_1">
      <g id="Layer_1-2" data-name="Layer_1">
        <path class="cls-1" d="M384,21.3H128c-58.9,0-106.6,47.8-106.7,106.7v170.7c0,50.7,35.7,94.3,85.3,104.5v66.1c0,11.8,9.5,21.3,21.3,21.3s8.3-1.2,11.8-3.6l122.6-81.7h121.6c58.9,0,106.6-47.8,106.7-106.7V127.9c0-58.9-47.8-106.6-106.7-106.7h0ZM341.3,277.3h-170.7c-11.8,0-21.3-9.6-21.3-21.3s9.6-21.3,21.3-21.3h170.7c11.8,0,21.3,9.6,21.3,21.3s-9.6,21.3-21.3,21.3ZM384,192H128c-11.8,0-21.3-9.6-21.3-21.3s9.6-21.3,21.3-21.3h256c11.8,0,21.3,9.6,21.3,21.3s-9.6,21.3-21.3,21.3Z"/>
      </g>
    </g>
  </g>
</svg>
