<?xml version="1.0" encoding="UTF-8"?>
<svg xmlns="http://www.w3.org/2000/svg" version="1.1" viewBox="0 0 512 512">
  <defs>
    <style>
      .cls-1 {
        fill: #191919;
      }
    </style>
  </defs>
  <!-- Generator: Adobe Illustrator 28.6.0, SVG Export Plug-In . SVG Version: 1.2.0 Build 709)  -->
  <g>
    <g id="Layer_1">
      <path class="cls-1" d="M256,0C114.8,0,0,114.8,0,256s114.8,256,256,256,256-114.8,256-256S397.2,0,256,0ZM377.8,388.4c-4.2,4.2-9.6,6.3-15.1,6.3s-10.9-2.1-15.1-6.3l-106.7-106.7c-4-4-6.2-9.4-6.2-15.1v-138.7c0-11.8,9.6-21.3,21.3-21.3s21.3,9.5,21.3,21.3v129.8l100.4,100.4c8.3,8.3,8.3,21.8,0,30.2Z"/>
    </g>
  </g>
</svg>
