<?xml version="1.0" encoding="UTF-8"?>
<svg xmlns="http://www.w3.org/2000/svg" version="1.1" viewBox="0 0 60 60">
  <defs>
    <style>
      .cls-1 {
        fill: #5664e2;
      }

      .cls-2 {
        fill: #fff;
      }
    </style>
  </defs>
  <!-- Generator: Adobe Illustrator 28.6.0, SVG Export Plug-In . SVG Version: 1.2.0 Build 709)  -->
  <g>
    <g id="Layer_1">
      <rect class="cls-1" width="60" height="60" rx="8.8" ry="8.8"/>
      <g id="_97_Office_Building_Block_Apartment_Buildings_Hotel_Offices">
        <path class="cls-2" d="M15.4,24.5c-.7,0-1.2.5-1.2,1.2v19.5h6.1v-20.7h-4.9ZM19,41.6h-2.4v-2.4h2.4v2.4ZM19,36.7h-2.4v-2.4h2.4v2.4ZM19,31.8h-2.4v-2.4h2.4v2.4ZM44.6,24.5h-4.9v20.7h6.1v-19.5c0-.7-.5-1.2-1.2-1.2ZM43.4,41.6h-2.4v-2.4h2.4v2.4ZM43.4,36.7h-2.4v-2.4h2.4v2.4ZM43.4,31.8h-2.4v-2.4h2.4v2.4ZM37.3,14.7h-14.6c-.7,0-1.2.5-1.2,1.2v29.3h17.1V16c0-.7-.5-1.2-1.2-1.2ZM28.8,41.6h-2.4v-2.4h2.4v2.4ZM28.8,36.7h-2.4v-2.4h2.4v2.4ZM28.8,31.8h-2.4v-2.4h2.4v2.4ZM28.8,26.9h-2.4v-2.4h2.4v2.4ZM28.8,22.1h-2.4v-2.4h2.4v2.4ZM33.7,41.6h-2.4v-2.4h2.4v2.4ZM33.7,36.7h-2.4v-2.4h2.4v2.4ZM33.7,31.8h-2.4v-2.4h2.4v2.4ZM33.7,26.9h-2.4v-2.4h2.4v2.4ZM33.7,22.1h-2.4v-2.4h2.4v2.4Z"/>
      </g>
    </g>
  </g>
</svg>
