<?xml version="1.0" encoding="UTF-8"?>
<svg xmlns="http://www.w3.org/2000/svg" version="1.1" xmlns:svg="http://www.w3.org/2000/svg" viewBox="0 0 16 16">
  <defs>
    <style>
      .cls-1 {
        fill: #7b7b7b;
      }
    </style>
  </defs>
  <!-- Generator: Adobe Illustrator 28.6.0, SVG Export Plug-In . SVG Version: 1.2.0 Build 709)  -->
  <g>
    <g id="Layer_1">
      <g id="svg1">
        <g id="layer1">
          <path id="path838" class="cls-1" d="M7.7.2c-1.2,0-2.4,0-3.4.1C2.2.5.5,2.2.3,4.3c-.2,2.5-.2,4.9,0,7.4.2,2.1,1.9,3.8,4,4,2.5.2,4.9.2,7.4,0,2.1-.2,3.8-1.9,4-4,.2-2.5.2-5,0-7.4-.2-2.1-1.9-3.8-4-4-1.4,0-2.7,0-4,0h0ZM8.6,4h.1c.8,0,1.7.4,2.3,1,.8.8,1.1,1.8.9,2.9v.3h-.7v-.4c.2-.8,0-1.7-.7-2.3-.6-.6-1.5-.9-2.3-.7h-.3v-.6c0,0,.2,0,.2,0h.4v-.2ZM5.3,4h.3l1.5,1.5c0,0,0,.3,0,.5l-.3.3c-.2.2-.3.6,0,.8.6.9,1.3,1.6,2.2,2.2.3.2.6.1.8,0l.3-.3c.1-.1.3-.1.5,0h0l1.5,1.5c.1.1.1.3,0,.5h0l-.5.5c-.7.7-1.7.8-2.5.3-1.8-1.2-3.4-2.7-4.5-4.5-.5-.8-.4-1.9.3-2.5l.5-.5h0l-.2-.3ZM8.6,5.3c.5,0,1.1.2,1.5.6s.6,1.1.6,1.7v.3h-.7v-.3c.1-.4,0-.8-.3-1.1-.3-.3-.7-.4-1.1-.4h-.3v-.6h.5l-.2-.2Z"/>
        </g>
      </g>
    </g>
  </g>
</svg>
