<?xml version="1.0" encoding="UTF-8"?>
<svg xmlns="http://www.w3.org/2000/svg" version="1.1" viewBox="0 0 60 60">
  <defs>
    <style>
      .cls-1 {
        fill: #fff;
      }

      .cls-2 {
        fill: #ff5d2d;
      }
    </style>
  </defs>
  <!-- Generator: Adobe Illustrator 28.6.0, SVG Export Plug-In . SVG Version: 1.2.0 Build 709)  -->
  <g>
    <g id="Layer_1">
      <rect class="cls-2" width="60" height="60" rx="8.8" ry="8.8"/>
      <g>
        <path class="cls-1" d="M42.4,41.7h-24.9c-1.3,0-2.3,1-2.3,2.3s1,2.3,2.3,2.3h24.9c1.3,0,2.3-1,2.3-2.3s-1-2.3-2.3-2.3Z"/>
        <path class="cls-1" d="M46.3,18.3c-1.7,0-3.1,1.4-3.1,3.1s.6,2.1,1.6,2.7c-1.8,4.3-4.6,6.9-7.2,6.6-2.9-.2-5.3-3.7-6.6-9.5,1.7-.4,2.9-1.9,2.9-3.8s-1.7-3.9-3.9-3.9-3.9,1.7-3.9,3.9,1.3,3.3,2.9,3.8c-1.3,5.8-3.7,9.2-6.6,9.5-2.6.2-5.4-2.4-7.2-6.6.9-.5,1.6-1.5,1.6-2.7,0-1.7-1.4-3.1-3.1-3.1-1.7,0-3.1,1.4-3.1,3.1s1.2,2.9,2.8,3.1l3,15.6h27.4l3-15.6c1.5-.2,2.8-1.5,2.8-3.1s-1.4-3.1-3.1-3.1Z"/>
      </g>
    </g>
  </g>
</svg>
