<?xml version="1.0" encoding="UTF-8"?>
<svg xmlns="http://www.w3.org/2000/svg" version="1.1" viewBox="0 0 512 512">
  <defs>
    <style>
      .cls-1 {
        fill: #7b7b7b;
      }
    </style>
  </defs>
  <!-- Generator: Adobe Illustrator 28.6.0, SVG Export Plug-In . SVG Version: 1.2.0 Build 709)  -->
  <g>
    <g id="Layer_1">
      <g id="Layer_1-2" data-name="Layer_1">
        <g id="_03_dashboard_layout_grid">
          <path class="cls-1" d="M234.7,85.3v85.3c0,35.3-28.7,64-64,64h-85.3c-35.3,0-64-28.7-64-64v-85.3c0-35.3,28.7-64,64-64h85.3c35.3,0,64,28.7,64,64ZM426.7,21.3h-85.3c-35.3,0-64,28.7-64,64v85.3c0,35.3,28.7,64,64,64h85.3c35.3,0,64-28.7,64-64v-85.3c0-35.3-28.7-64-64-64ZM170.7,277.3h-85.3c-35.3,0-64,28.7-64,64v85.3c0,35.3,28.7,64,64,64h85.3c35.3,0,64-28.7,64-64v-85.3c0-35.3-28.7-64-64-64ZM426.7,277.3h-85.3c-35.3,0-64,28.7-64,64v85.3c0,35.3,28.7,64,64,64h85.3c35.3,0,64-28.7,64-64v-85.3c0-35.3-28.7-64-64-64Z"/>
        </g>
      </g>
    </g>
  </g>
</svg>
