<?xml version="1.0" encoding="UTF-8"?>
<svg xmlns="http://www.w3.org/2000/svg" version="1.1" viewBox="0 0 60 60">
  <defs>
    <style>
      .cls-1 {
        fill: #ed1b2b;
      }
    </style>
  </defs>
  <!-- Generator: Adobe Illustrator 28.6.0, SVG Export Plug-In . SVG Version: 1.2.0 Build 709)  -->
  <g>
    <g id="Layer_1">
      <g id="Layer_1-2" data-name="Layer_1">
        <g>
          <path class="cls-1" d="M60.1,30c0,16.6-13.5,30-30.1,30S0,46.5,0,29.9,13.5,0,30.1,0s29.9,13.5,29.9,30h0ZM56.1,30c0-14.3-11.6-25.9-26-26C15.7,4,4,15.5,4,29.9s11.6,26,26,26,26-11.6,26.1-26h0Z"/>
          <path class="cls-1" d="M32.1,35.3l2.6-2.6,1.9-1.9c.8-.7,2-.7,2.8,0,.8.8.8,2,0,2.8-2.7,2.7-5.4,5.4-8.1,8-.8.8-1.9.8-2.7,0-.4-.3-.8-.7-1.1-1.1-2.3-2.3-4.6-4.6-6.9-6.9-.6-.6-.8-1.4-.5-2.2.3-.8.8-1.2,1.6-1.3.7,0,1.3.2,1.8.7,1.3,1.3,2.6,2.6,3.9,3.9,0,.1.3.3.5.5v-.8c0-4.7,0-9.4,0-14.1s.8-2.2,1.9-2.3c1.2,0,2.1.8,2.1,2,0,2.7,0,5.4,0,8v6.9s0,0,.1,0v.4Z"/>
        </g>
      </g>
    </g>
  </g>
</svg>
