<?xml version="1.0" encoding="UTF-8"?>
<svg xmlns="http://www.w3.org/2000/svg" version="1.1" viewBox="0 0 512 512">
  <defs>
    <style>
      .cls-1 {
        fill: #191919;
      }
    </style>
  </defs>
  <!-- Generator: Adobe Illustrator 28.6.0, SVG Export Plug-In . SVG Version: 1.2.0 Build 709)  -->
  <g>
    <g id="Layer_1">
      <path class="cls-1" d="M298.8,313.7c-12.7,8.5-27.5,13-42.8,13s-30.1-4.5-42.8-13L3.4,173.8c-1.2-.8-2.3-1.6-3.4-2.4v229.2C0,426.9,21.3,447.7,47.1,447.7h417.7c26.3,0,47.1-21.3,47.1-47.1v-229.2c-1.1.8-2.2,1.6-3.4,2.4l-209.8,139.9Z"/>
      <path class="cls-1" d="M20,148.9l209.8,139.9c7.9,5.3,17,7.9,26.1,7.9s18.2-2.6,26.1-7.9l209.8-139.9c12.6-8.4,20-22.4,20-37.5,0-26-21.1-47.1-47.1-47.1H47.1C21.1,64.3,0,85.4,0,111.4s7.5,29.1,20,37.4Z"/>
    </g>
  </g>
</svg>
