<?xml version="1.0" encoding="UTF-8"?>
<svg xmlns="http://www.w3.org/2000/svg" version="1.1" viewBox="0 0 60 60">
  <defs>
    <style>
      .cls-1 {
        fill: #4293fe;
      }

      .cls-2 {
        fill: #2965ec;
      }

      .cls-3 {
        fill: #2045cd;
      }

      .cls-4 {
        fill: #b6c5e1;
      }

      .cls-5 {
        fill: #e5ebfe;
      }

      .cls-6 {
        fill: #2d5be6;
      }

      .cls-7 {
        fill: #376cfa;
      }
    </style>
  </defs>
  <!-- Generator: Adobe Illustrator 28.6.0, SVG Export Plug-In . SVG Version: 1.2.0 Build 709)  -->
  <g>
    <g id="Layer_1">
      <g>
        <path class="cls-5" d="M18.5,0C28.7,0,39,0,49.2,0c1.3,0,2.2.9,2.2,2.2,0,4.4,0,8.8,0,13.2.2.2.2.5.2.8,0,4.9,0,9.9,0,14.8,0,.1,0,.2,0,.3,0,.3-.3.5-.6.7-3.8,2.1-7.7,4.2-11.6,6.3-.7.3-1.2.9-2,.9-.8-.4-1.4-1-2.1-1.5-2.5-2.1-4.7-4.5-6.5-7.1-.1-.2-.5-.5,0-.7.4,0,.7,0,1.1,0,3.4,0,6.9,0,10.3,0,.3,0,.7,0,1,0,.9-.2,1.5-1,1.5-1.9,0-.9-.6-1.7-1.5-1.9-.4,0-.7,0-1.1,0-4.3,0-8.7,0-13,0-.3,0-.7,0-1,0,0,0-.2,0-.2,0-.3-.2-.4-.4-.5-.7-.5-1-1-1.9-1.4-2.9-.1-.3-.4-.6,0-.9.4-.1.8,0,1.1,0,5,0,10,0,15,0,.4,0,.7,0,1.1,0,.9-.2,1.5-.9,1.6-1.8,0-.9-.6-1.7-1.6-1.9-.4,0-.8,0-1.1,0-5.5,0-11.1,0-16.6,0-.4,0-.7,0-1.1,0,0,0-.2,0-.2,0-.2-.1-.3-.3-.3-.5-.3-1.1-.7-2.1-1-3.2,0-.3-.2-.6.1-.8.4-.1.7-.1,1.1-.1,6,0,12,0,17.9,0,.4,0,.7,0,1.1,0,1-.2,1.7-1,1.6-1.9,0-.9-.7-1.7-1.7-1.9-.4,0-.7,0-1.1,0-6.3,0-12.6,0-18.9,0-.4,0-.8,0-1.2-.1-.3-.2-.3-.6-.4-.9-.4-2.4-.8-4.8-1-7.2,0-.2,0-.4.1-.6Z"/>
        <path class="cls-7" d="M37.4,39.1c.7-.3,1.3-.7,2-1,.4-.1.7.1,1,.3,2.4,1.7,4.8,3.4,7.2,5.1,3.7,2.6,7.4,5.2,11.1,7.8.5.3.9.6,1.3,1,.3,2.9-.6,5.2-3.2,6.8-.9.6-2,.9-3.1.9-1,0-2,0-2.9,0-.2,0-.5,0-.7,0-2.4,0-4.8-.5-7.1-.9-4.3-.8-8.4-2-12.4-3.7-4.9-2-9.4-4.7-13.4-8.1-1.4-1.2-2.7-2.4-3.8-3.9,0,0,0-.1,0-.2.7-.8,1.7-1.3,2.5-1.9,1.3-.9,2.6-1.8,3.9-2.8.3-.2.6-.4,1-.4,1.3.5,2.6,1.3,3.8,2,1.5.8,2.9,1.6,4.4,2.4.7.4,1.5.4,2.2,0,1.8-1,3.6-2,5.5-2.9.3-.1.5-.3.8-.3Z"/>
        <path class="cls-4" d="M37.4,39.1c-1.1.8-2.4,1.3-3.5,2-.8.5-1.7.9-2.6,1.4-.9.5-1.7.5-2.5,0-2.6-1.4-5.2-2.8-7.7-4.2-.1,0-.2-.1-.4-.2-1.1-.3-2-1-3-1.5-2.8-1.5-5.5-3-8.2-4.4-.4-.2-.8-.4-.9-.9,0-.3,0-.5,0-.8,0-4.7,0-9.4,0-14,0-.4,0-.8.2-1.1,0-4.3,0-8.7,0-13C8.6.8,9.4,0,10.9,0c2.5,0,5,0,7.6,0,.3,2.9.6,5.7,1.2,8.5,0,0,0,0,0,0-.2.1-.4.1-.6.1-1,.2-1.7,1.1-1.7,2.1,0,1,.9,1.8,1.9,1.8.5,0,.9,0,1.4,0,0,0,.1,0,.2.1.2,1.5.8,2.8,1.2,4.2-.2.2-.5.2-.7.2-.6,0-1.2,0-1.9,0-1.2,0-2,.8-2,1.9,0,1.1.8,1.9,2,2,1.1,0,2.2,0,3.3,0,.3,0,.6,0,.9,0,0,0,.1,0,.2.1.7,1.4,1.3,2.8,2,4.2-.3.3-.6.2-.9.2-1.8,0-3.5,0-5.3,0-.4,0-.8,0-1.2.3-.8.5-1.1,1.4-.9,2.2.2.8,1,1.4,1.9,1.4,2.7,0,5.3,0,8,0,.3,0,.7,0,1,0,0,0,.1,0,.2.2,2.5,3.5,5.4,6.5,8.8,9.1Z"/>
        <path class="cls-3" d="M13.3,43.2c.8.8,1.5,1.7,2.4,2.4,2.9,2.7,6,5,9.4,6.9,5.3,2.9,11,4.8,16.9,6.1,2.3.5,4.5.9,6.8,1.1.4,0,.8.1,1.3.1,0,0,0,0,0,0,0,0,0,0,0,0-.3,0-.5,0-.8,0-14.2,0-28.4,0-42.6,0-3.2,0-6.1-2.2-6.6-5.3-.1-.8,0-1.6,0-2.3.8-.8,1.9-1.4,2.8-2.1,3-2.2,6.1-4.3,9.2-6.4.4-.3.7-.7,1.2-.6Z"/>
        <path class="cls-1" d="M60,52.3c-1.4-.8-2.6-1.8-3.9-2.7-5.2-3.6-10.4-7.3-15.6-10.9-.3-.2-.6-.5-1-.6,2.8-1.5,5.7-3.1,8.5-4.6,1.2-.6,2.3-1.3,3.5-1.9.3-.4.7-.6,1.1-.8,2.3-1.2,4.6-2.5,6.9-3.7.2,0,.3-.2.5,0,0,.9,0,1.9,0,2.8,0,7.2,0,14.5,0,21.7,0,.3,0,.5,0,.8Z"/>
        <path class="cls-2" d="M13.3,43.2c-1.8,1.2-3.5,2.4-5.3,3.6-2.1,1.4-4.1,2.9-6.1,4.3-.6.4-1.1.9-1.8,1.2,0-.4,0-.7,0-1.1,0-7.8,0-15.6,0-23.4,0-.3,0-.5,0-.8.2-.2.4,0,.5,0,1.3.7,2.7,1.4,4,2.1.2.1.5.2.7.3.1,0,.2.2.2.3.7,2.2,1.8,4.3,2.9,6.3,1.3,2.3,2.7,4.4,4.4,6.3.2.2.4.4.4.7,0,0,0,0,0,.1Z"/>
        <path class="cls-7" d="M60,27c-2.8,1.5-5.7,3-8.5,4.6,0-5.4,0-10.8,0-16.2,1.8,1,3.7,1.9,5.5,2.9,2,1.2,3.1,3.1,3.1,5.5,0,1.1,0,2.1,0,3.2Z"/>
        <path class="cls-7" d="M5.4,29.9c0-.1,0-.2-.1-.3-.3-.2-.4-.5-.5-.8-1-3-1.8-6.1-2.3-9.2,0-.3-.1-.6,0-.8.1-.2.3-.3.5-.4,1.8-1,3.7-1.9,5.5-2.9,0,5.4,0,10.8,0,16.2,0,0,0,0-.1,0-1.1-.5-2.2-.9-3.1-1.8Z"/>
        <path class="cls-3" d="M2.6,18.7c.3,2.5.8,4.9,1.5,7.3.3,1.2.8,2.4,1.2,3.5-.3.3-.5,0-.6-.1-1.4-.8-2.8-1.5-4.3-2.3,0,0-.2,0-.3-.1,0-1.7-.3-3.5.3-5.2.4-1.3,1.1-2.4,2.2-3.1Z"/>
        <path class="cls-6" d="M50.1,59.9s0,0,0-.1c.2,0,.5,0,.7.1-.2,0-.4,0-.7,0Z"/>
        <path class="cls-1" d="M20.8,12.9s0,0-.1,0c-.5-1.1-.7-2.3-.9-3.5,0-.2-.2-.5,0-.8,0,0,0,0,0,0,1.4,0,2.8,0,4.1,0,5.6,0,11.1,0,16.7,0,1.7,0,2.7,1.5,2.1,3-.3.9-1.1,1.3-2.2,1.3-5.1,0-10.2,0-15.2,0-1.5,0-3,0-4.5,0Z"/>
        <path class="cls-1" d="M22.1,17.2c2.2,0,4.4,0,6.6,0,3.9,0,7.8,0,11.8,0,1.4,0,2.4.9,2.4,2.2,0,1.2-1,2.1-2.3,2.1-5.3,0-10.7,0-16,0-.3,0-.5,0-.8,0,0,0,0,0,0,0-.9-1.2-1.4-2.7-1.7-4.1,0,0,0,0,0-.1Z"/>
        <path class="cls-1" d="M28.5,30s0,0-.1,0c-1-1.2-1.8-2.5-2.5-3.9,0,0,0-.2,0-.3,5,0,9.9,0,14.9,0,1.2,0,2.1,1,2.1,2.2,0,1.2-1,2.1-2.2,2.1-3.8,0-7.5,0-11.3,0-.3,0-.5,0-.8,0Z"/>
        <path class="cls-2" d="M25.9,25.7c.7,1.3,1.4,2.4,2.2,3.6.1.2.3.4.3.6-3.1,0-6.1,0-9.2,0-1.1,0-2-1-2-2.1,0-1.2.9-2.1,2-2.1,2.2,0,4.4,0,6.5,0,0,0,0,0,.1,0Z"/>
        <path class="cls-2" d="M22.1,17.2c.4,1.5,1,2.8,1.6,4.2-1.5,0-3.1,0-4.6,0-1.1,0-2-1-2-2.1,0-1.1.9-2.1,2-2.1,1,0,1.9,0,2.9,0,0,0,0,0,.1,0Z"/>
        <path class="cls-1" d="M5.4,29.9c1.1.6,2.1,1.2,3.2,1.7,2.2,1.2,4.4,2.4,6.6,3.6,1.8,1,3.6,2,5.4,3-.9.3-1.6,1-2.4,1.5-1.7,1.1-3.3,2.3-5,3.4-.9-.9-1.7-2-2.5-3-1.4-1.8-2.5-3.8-3.6-5.9-.7-1.4-1.4-2.8-1.9-4.3Z"/>
        <path class="cls-2" d="M19.7,8.6c.3,1.4.6,2.8.9,4.2-.4,0-.8,0-1.2,0-1.4,0-2.3-.9-2.3-2.2,0-1.2,1-2.1,2.3-2.1,0,0,.1,0,.2,0Z"/>
      </g>
    </g>
  </g>
</svg>
