<?xml version="1.0" encoding="UTF-8"?>
<svg xmlns="http://www.w3.org/2000/svg" version="1.1" viewBox="0 0 60 60">
  <defs>
    <style>
      .cls-1 {
        fill: #e5513a;
      }
    </style>
  </defs>
  <!-- Generator: Adobe Illustrator 28.6.0, SVG Export Plug-In . SVG Version: 1.2.0 Build 709)  -->
  <g>
    <g id="Layer_1">
      <g>
        <path class="cls-1" d="M18.1,59.4c1.7-3.4,3.3-6.8,5-10.2,0-.1.3-.3.5-.3,4.2,0,8.5,0,12.7,0,.2,0,.4.1.5.3,1.7,3.4,3.4,6.8,5,10.2h-23.7Z"/>
        <path class="cls-1" d="M.5,59.3c.4-.4.8-.8,1.1-1.2,2.4-2.9,4.9-5.8,7.3-8.7.2-.3.5-.4.9-.4,3,0,6,0,9,0s.3,0,.6,0c0,.2,0,.3-.2.4-1.6,3.3-3.2,6.5-4.9,9.8,0,0,0,.2-.1.2-4.4,0-8.8,0-13.2,0-.2,0-.3,0-.5-.1Z"/>
        <path class="cls-1" d="M45.8,59.4c-1.6-3.2-3.2-6.3-4.7-9.5-.1-.3-.3-.6-.5-.9.2,0,.4,0,.6,0,3,0,5.9,0,8.9,0,.4,0,.7.1,1,.5,2.6,3.1,5.2,6.3,7.8,9.4.2.2.3.3.5.5-.2,0-.3.1-.5.1-4.4,0-8.8,0-13.2,0Z"/>
        <path class="cls-1" d="M23.1,10.9h-5.2c4.1-3.5,8-6.9,12.1-10.3,4,3.4,8,6.8,12.1,10.3h-5.2v34.6h-13.8V10.9Z"/>
        <path class="cls-1" d="M19.6,45.5h-8.6v-13.8h-3.5c2.9-3.5,5.8-6.9,8.6-10.3.6.7,1.2,1.4,1.8,2.1.5.7,1.3,1.3,1.6,2,.3.8,0,1.7,0,2.6,0,5.6,0,11.1,0,16.7v.7Z"/>
        <path class="cls-1" d="M43.8,21.4c2.9,3.5,5.7,6.8,8.6,10.3h-3.4v13.8h-8.7v-.6c0-6.3,0-12.6,0-18.8,0-.3.1-.7.3-.9,1-1.2,2-2.4,3.1-3.7Z"/>
      </g>
    </g>
  </g>
</svg>
