<?xml version="1.0" encoding="UTF-8"?>
<svg xmlns="http://www.w3.org/2000/svg" version="1.1" viewBox="0 0 60 60">
  <defs>
    <style>
      .cls-1 {
        fill: #191919;
      }
    </style>
  </defs>
  <!-- Generator: Adobe Illustrator 28.6.0, SVG Export Plug-In . SVG Version: 1.2.0 Build 709)  -->
  <g>
    <g id="Layer_1">
      <g>
        <path class="cls-1" d="M.1,17.8c.3-.8.6-1.6.9-2.4,5.6,5.6,11.1,11.1,16.6,16.6-5.5,5.5-11,11-16.6,16.6-.3-.8-.6-1.6-.9-2.4,0-9.4,0-18.9,0-28.3Z"/>
        <path class="cls-1" d="M1.9,14.4c1.2-1.2,2.7-1.8,4.3-1.8,3.1,0,6.2,0,9.2,0,8.1,0,16.3,0,24.4,0h.7c-2.7,5-2.2,9.6,1.5,13.9-.1.1-.2.3-.4.4-3.1,3.1-6.1,6.1-9.2,9.2-2.7,2.7-6.3,2.7-8.9,0-7.2-7.1-14.3-14.3-21.5-21.5,0,0-.2-.2-.3-.3Z"/>
        <path class="cls-1" d="M37.4,32.8c5.7,5.7,11.2,11.2,16.8,16.8-1,1-2.3,1.6-3.8,1.7-.2,0-.4,0-.6,0-14.4,0-28.9,0-43.3,0-1.7,0-3.2-.5-4.4-1.6,5.6-5.6,11.1-11.1,16.7-16.7,0,0,.2.2.3.3,1.4,1.4,2.8,2.8,4.2,4.2,2.7,2.5,6.8,2.6,9.6,0,1.5-1.3,2.8-2.8,4.2-4.2.1-.1.2-.3.4-.5Z"/>
        <path class="cls-1" d="M56,28.1c0,.3,0,.5,0,.6,0,5.5,0,10.9,0,16.4,0,1.3-.3,2.4-1,3.4-5.5-5.5-11-11.1-16.5-16.6,1.4-1.4,3-3,4.6-4.5,1.8,1.4,3.9,2.2,6.2,2.4,2.4.1,4.6-.4,6.7-1.7Z"/>
      </g>
      <path class="cls-1" d="M50.2,28.1c-5.3,0-9.7-4.3-9.7-9.6,0-5.4,4.3-9.8,9.7-9.9,5.3,0,9.8,4.4,9.8,9.7,0,5.4-4.3,9.7-9.8,9.8ZM51.1,20.7c0-.5,0-1,0-1.5,0-1.6,0-3.2,0-4.7,0-.4-.2-.7-.6-.9-.5-.2-1.1.2-1.1.8,0,2,0,4,0,6,0,0,0,.2,0,.3-.5-.5-.9-.9-1.4-1.3-.3-.3-.7-.3-1,0-.3.3-.3.7,0,1,.9.9,1.8,1.8,2.7,2.7.3.3.7.3,1,0,.9-.9,1.8-1.8,2.7-2.7.3-.3.3-.7,0-1-.3-.3-.7-.3-1,0-.4.4-.8.8-1.1,1.1,0,0-.1.1-.2.2Z"/>
    </g>
  </g>
</svg>
