<?xml version="1.0" encoding="UTF-8"?>
<svg xmlns="http://www.w3.org/2000/svg" version="1.1" viewBox="0 0 65 65">
  <defs>
    <style>
      .cls-1 {
        fill: #7b7b7b;
      }
    </style>
  </defs>
  <!-- Generator: Adobe Illustrator 28.6.0, SVG Export Plug-In . SVG Version: 1.2.0 Build 709)  -->
  <g>
    <g id="Layer_1">
      <g id="Layer_1-2" data-name="Layer_1">
        <g>
          <path class="cls-1" d="M42.2,40.3c-2.6,0-6.5,6.5-6.5,6.5-2.2,2.2-7.9,0-12.7-4.8-4.8-4.8-7-10.6-4.8-12.8,0,0,6.5-3.9,6.5-6.5,0-6-10.9-16.9-16.9-16.9s-4.8,4.8-4.8,4.8c-6.4,6.4,0,23.2,14.1,37.4,14.2,14.1,30.9,20.4,37.4,14,0,0,4.7-3,4.7-4.7,0-6-11-17-17-17Z"/>
          <path class="cls-1" d="M59.8.5h-22c-2.6,0-4.7,2.1-4.7,4.7v15.3c0,2.6,2.1,4.7,4.7,4.7h2v5.2c0,1.1,1.3,1.8,2.2,1.2l9.8-6.4h8c2.6,0,4.7-2.1,4.7-4.7V5.2c0-2.6-2.1-4.7-4.7-4.7ZM41.5,15h-1c-1.2,0-2.1-1-2.1-2.1s1-2.1,2.1-2.1h1c1.2,0,2.1,1,2.1,2.1s-.9,2.1-2.1,2.1ZM49.3,15h-1c-1.2,0-2.1-1-2.1-2.1s1-2.1,2.1-2.1h1c1.2,0,2.1,1,2.1,2.1s-.9,2.1-2.1,2.1ZM57.2,15h-1c-1.2,0-2.1-1-2.1-2.1s1-2.1,2.1-2.1h1c1.2,0,2.1,1,2.1,2.1s-1,2.1-2.1,2.1Z"/>
        </g>
      </g>
    </g>
  </g>
</svg>
