<?xml version="1.0" encoding="UTF-8"?>
<svg xmlns="http://www.w3.org/2000/svg" version="1.1" viewBox="0 0 512 512">
  <defs>
    <style>
      .cls-1, .cls-2 {
        fill: #191919;
      }

      .cls-2 {
        fill-rule: evenodd;
      }
    </style>
  </defs>
  <!-- Generator: Adobe Illustrator 28.6.0, SVG Export Plug-In . SVG Version: 1.2.0 Build 709)  -->
  <g>
    <g id="Layer_1">
      <g id="Icon">
        <circle class="cls-1" cx="245.3" cy="143.9" r="117.3"/>
        <path class="cls-2" d="M240,464.1v-43.8c0-9.9,3.9-19.4,10.9-26.4l42.5-42.5c-1-23.1,5.4-46.5,19.4-66.3-21.2-3.6-43.9-5.6-67.4-5.6-70.9,0-133.6,17.7-172.6,44.3-29.7,20.3-46.1,46-46.1,73v30.9c0,9.6,3.8,18.9,10.6,25.6,6.8,6.8,16,10.6,25.6,10.6h177.1Z"/>
        <path class="cls-2" d="M387.2,431.1c25.9,3.9,53.2-4.1,73.1-24,33.3-33.3,33.3-87.4,0-120.7-33.3-33.3-87.4-33.3-120.7,0s-27.9,47.2-24,73.1c0,0-49.5,49.5-49.5,49.5-3,3-4.7,7.1-4.7,11.3v49c0,8.8,7.2,16,16,16h49c4.2,0,8.3-1.7,11.3-4.7l49.5-49.5ZM383.6,363.1c-9-9-9-23.7,0-32.7s23.7-9,32.7,0,9,23.7,0,32.7-23.7,9-32.7,0h0Z"/>
      </g>
    </g>
  </g>
</svg>
