<?xml version="1.0" encoding="UTF-8"?>
<svg xmlns="http://www.w3.org/2000/svg" version="1.1" viewBox="0 0 60 60">
  <defs>
    <style>
      .cls-1 {
        fill: #4c96e2;
      }

      .cls-2 {
        fill: #e2ecef;
      }

      .cls-3 {
        fill: #52c0fe;
      }

      .cls-4 {
        fill: #cee0ed;
      }

      .cls-5 {
        fill: #fefefe;
      }
    </style>
  </defs>
  <!-- Generator: Adobe Illustrator 28.6.0, SVG Export Plug-In . SVG Version: 1.2.0 Build 709)  -->
  <g>
    <g id="Layer_1">
      <g>
        <path class="cls-1" d="M33.2,54.2c-.3,1.3-1.1,1.8-2.5,1.6-1.8-.2-3.6-.5-5.4-.8-3.4-.5-6.8-1-10.3-1.5-3.7-.5-7.3-1.1-11-1.6-.7,0-1.4-.2-2.1-.3-1-.2-1.6-.9-1.6-1.9,0-.2,0-.4,0-.6,0-12.8,0-25.6,0-38.5,0-1.7.6-2.3,2.3-2.6,4-.5,8-1.1,12-1.7,3.9-.6,7.9-1.1,11.8-1.7,1.4-.2,2.7-.3,4.1-.6,1.8-.3,2.7.8,2.7,2.2,0,2.7,0,5.3,0,8,.2.2.2.5.2.8,0,5.2,0,10.4,0,15.6,0,4.5,0,8.9,0,13.4,0,3.3,0,6.5,0,9.8,0,0,0,.2,0,.2Z"/>
        <path class="cls-1" d="M59.6,14.5c0,.3,0,.5,0,.8,0,10,0,20.1,0,30.1,0,0-.2,0-.3,0-1.4-1.1-2.8-2.3-4.1-3.4-3.2-2.6-6.4-5.3-9.6-8-1.4-1.1-2.8-2.3-4.1-3.4-.1-.1-.3-.3-.4-.4,0-.3.2-.5.4-.7,4.4-3.7,8.7-7.4,13-11.1,1.5-1.2,2.9-2.5,4.4-3.7.2-.2.3-.4.6-.3Z"/>
        <path class="cls-3" d="M59.6,14.5c-.8.4-1.4,1.1-2.1,1.7-2.2,1.8-4.3,3.7-6.5,5.5-1.6,1.3-3.1,2.7-4.7,4.1-1.5,1.3-3.1,2.6-4.6,3.9-.2.1-.4.3-.4.5-.9.8-1.8,1.6-2.8,2.4-.4.3-.8.7-1.2,1-.3.3-.6.3-.9,0-1-.8-2-1.7-2.9-2.5-.1,0-.2-.2-.2-.4,0-4.1,0-8.3,0-12.4,0-1.3,0-2.7,0-4,.3,0,.5,0,.8,0,8.3,0,16.6,0,24.9,0,.2,0,.5-.1.7.1Z"/>
        <path class="cls-4" d="M33.2,30.8c0,0,.2.1.2.2,0,.3,0,.6,0,.9,0,4.1,0,8.2,0,12.3,0,1,0,1,1,1,7.9,0,15.8,0,23.6,0,.4,0,.9,0,1.3.2,0,0,.1,0,.2,0-.2.3-.5.1-.7.1-8.3,0-16.6,0-24.9,0-.7,0-.8.2-.8.8,0,2.4,0,4.8,0,7.2,0,.2,0,.5-.1.7,0-3,0-6.1,0-9.1,0-4.8,0-9.5,0-14.3Z"/>
        <path class="cls-5" d="M24.6,29.9c0,3.2-1.1,5.8-4.1,7.4-4.6,2.5-10.7.3-11.5-5.8-.4-2.7,0-5.2,1.9-7.4,2.2-2.5,5-3.1,8.1-2.3,3,.8,4.7,3,5.3,6,.1.7.2,1.3.2,2Z"/>
        <path class="cls-2" d="M59.5,45.5c-8.5,0-17.1,0-25.6,0-.5,0-.6-.2-.6-.6,0-4.5,0-8.9,0-13.4,0-.2,0-.4.1-.5,1,.8,2.1,1.7,3.1,2.6.3.2.4.2.7,0,1.1-1,2.3-2,3.5-3,.2-.2.4-.3.6-.4,3.3,2.8,6.6,5.5,9.9,8.3,2.6,2.2,5.3,4.4,7.9,6.6.1.1.2.2.4.4Z"/>
        <path class="cls-1" d="M12.6,29.7c0-1.2.3-2.6,1.3-3.8,1.7-2,4.7-1.8,6,.4,1.4,2.3,1.4,4.8,0,7.2-1.4,2.4-4.6,2.5-6.2.2-.8-1.1-1.1-2.4-1.1-4Z"/>
      </g>
    </g>
  </g>
</svg>
