<?xml version="1.0" encoding="UTF-8"?>
<svg xmlns="http://www.w3.org/2000/svg" version="1.1" viewBox="0 0 512 512">
  <defs>
    <style>
      .cls-1 {
        fill: #191919;
      }
    </style>
  </defs>
  <!-- Generator: Adobe Illustrator 28.6.0, SVG Export Plug-In . SVG Version: 1.2.0 Build 709)  -->
  <g>
    <g id="Layer_1">
      <path class="cls-1" d="M512,256C512,114.6,397.4,0,256,0S0,114.6,0,256s114.6,256,256,256,256-114.6,256-256ZM104.3,256c0-83.8,67.8-151.7,151.5-151.8,60,0,114.3,35.3,138.7,90.1l8.5-16.4c5.4-10.4,18.3-14.5,28.8-9.1,10.4,5.4,14.5,18.3,9.1,28.8h0l-35.6,68.3c-5.4,10.4-18.3,14.5-28.8,9.1,0,0,0,0,0,0l-68.2-35.6c-10.5-5.3-14.8-18.1-9.5-28.6,5.3-10.5,18.1-14.8,28.6-9.5.2,0,.4.2.6.3l29.7,15.5c-21.6-56.2-84.7-84.2-140.8-62.6-56.2,21.6-84.2,84.7-62.6,140.8,21.6,56.2,84.7,84.2,140.8,62.6,14.3-5.5,27.2-13.9,38-24.7,8.3-8.3,21.8-8.3,30.2,0,8.3,8.3,8.3,21.8,0,30.2h0c-59.3,59.2-155.4,59.2-214.6,0-28.4-28.4-44.4-67-44.4-107.2h0Z"/>
    </g>
  </g>
</svg>
