<?xml version="1.0" encoding="UTF-8"?>
<svg xmlns="http://www.w3.org/2000/svg" version="1.1" viewBox="0 0 512 512">
  <defs>
    <style>
      .cls-1 {
        fill: #191919;
      }
    </style>
  </defs>
  <!-- Generator: Adobe Illustrator 28.6.0, SVG Export Plug-In . SVG Version: 1.2.0 Build 709)  -->
  <g>
    <g id="Layer_1">
      <g id="calendar_check">
        <path class="cls-1" d="M16,176v240c0,26.4,21.6,48,48,48h200.3c-15.4-22.9-24.3-50.4-24.3-80,0-79.4,64.6-144,144-144s57.1,9,80,24.3v-88.3H16ZM160,384h-64v-32h64v32ZM160,288h-64v-32h64v32ZM384,272c-61.8,0-112,50.2-112,112s50.2,112,112,112,112-50.2,112-112-50.2-112-112-112ZM368,438.6l-54.6-54.6,22.6-22.6,32,32,64-64,22.6,22.6-86.6,86.6ZM464,96v48H16v-48c0-26.4,21.6-48,48-48h48V16h32v32h192V16h32v32h48c26.4,0,48,21.6,48,48Z"/>
      </g>
    </g>
  </g>
</svg>
