<?xml version="1.0" encoding="UTF-8"?>
<svg xmlns="http://www.w3.org/2000/svg" version="1.1" viewBox="0 0 60 60">
  <defs>
    <style>
      .cls-1 {
        fill: #8002a9;
      }

      .cls-2 {
        fill: #fff;
      }
    </style>
  </defs>
  <!-- Generator: Adobe Illustrator 28.6.0, SVG Export Plug-In . SVG Version: 1.2.0 Build 709)  -->
  <g>
    <g id="Layer_1">
      <rect class="cls-1" width="60" height="60" rx="8.8" ry="8.8"/>
      <path class="cls-2" d="M41.7,13.8h-23.3c-2.6,0-4.6,2-4.6,4.6v23.2c0,2.6,2,4.6,4.6,4.6h23.2c2.6,0,4.6-2,4.6-4.6v-23.2c.1-2.6-1.9-4.6-4.5-4.6ZM25.1,17.9c2.2,0,3.8,1.8,3.8,3.8s-1.8,3.8-3.8,3.8-3.8-1.6-3.8-3.8,1.8-3.8,3.8-3.8ZM21.3,41h-.9c-.7,0-1.4-.7-1.4-1.4s.7-1.4,1.4-1.4h.9c.7,0,1.4.7,1.4,1.4s-.7,1.4-1.4,1.4ZM27.5,41h-.9c-.7,0-1.4-.7-1.4-1.4s.7-1.4,1.4-1.4h.9c.8,0,1.4.7,1.4,1.4s-.7,1.4-1.4,1.4ZM19.6,34.4c-.9,0-1.6-.9-1.4-1.9.5-2.2,2.3-4.1,4.5-4.7.7.3,1.5.4,2.3.4s1.6-.1,2.3-.4c1.1.3,1.9.9,2.7,1.6.8.8,1.5,1.9,1.8,3.1.3.9-.4,1.9-1.4,1.9h-10.8ZM33.6,41h-.9c-.7,0-1.4-.7-1.4-1.4s.7-1.4,1.4-1.4h.9c.7,0,1.4.7,1.4,1.4s-.5,1.4-1.4,1.4ZM39.8,41h-.9c-.7,0-1.4-.7-1.4-1.4s.7-1.4,1.4-1.4h.9c.7,0,1.4.7,1.4,1.4s-.5,1.4-1.4,1.4ZM41.2,29.5h-5.4c-.7,0-1.4-.7-1.4-1.4s.7-1.4,1.4-1.4h5.4c.8,0,1.4.5,1.4,1.4s-.7,1.4-1.4,1.4ZM41.2,24.1h-5.4c-.7,0-1.4-.5-1.4-1.4s.7-1.4,1.4-1.4h5.4c.8,0,1.4.7,1.4,1.4s-.7,1.4-1.4,1.4Z"/>
    </g>
  </g>
</svg>
